<?xml version="1.0" encoding="UTF-8" standalone="no"?>
<!-- Created with Inkscape (http://www.inkscape.org/) -->

<svg
   width="1400mm"
   height="500mm"
   viewBox="0 0 1400 500.00007"
   version="1.1"
   id="svg5"
   inkscape:version="1.2.2 (b0a8486541, 2022-12-01)"
   sodipodi:docname="template.svg"
   inkscape:export-filename="kb_plate_uncut.svg"
   inkscape:export-xdpi="96"
   inkscape:export-ydpi="96"
   xmlns:inkscape="http://www.inkscape.org/namespaces/inkscape"
   xmlns:sodipodi="http://sodipodi.sourceforge.net/DTD/sodipodi-0.dtd"
   xmlns="http://www.w3.org/2000/svg"
   xmlns:svg="http://www.w3.org/2000/svg">
  <sodipodi:namedview
     id="namedview7"
     pagecolor="#ffffff"
     bordercolor="#666666"
     borderopacity="1.0"
     inkscape:showpageshadow="false"
     inkscape:pageopacity="0"
     inkscape:pagecheckerboard="0"
     inkscape:deskcolor="#ffffff"
     inkscape:document-units="mm"
     showgrid="false"
     inkscape:zoom="2"
     inkscape:cx="337"
     inkscape:cy="260.25"
     inkscape:window-width="1920"
     inkscape:window-height="1055"
     inkscape:window-x="1920"
     inkscape:window-y="1080"
     inkscape:window-maximized="0"
     inkscape:current-layer="layer1"
     showborder="false"
     borderlayer="false" />
  <defs
     id="defs2">
    <inkscape:path-effect
       effect="fillet_chamfer"
       id="path-effect2710"
       is_visible="true"
       lpeversion="1"
       nodesatellites_param="F,0,0,1,0,1.2501498,0,1 @ F,0,0,1,0,1.701826,0,1 @ F,0,0,1,0,1.128799,0,1 @ F,0,0,1,0,1.5107661,0,1 @ F,0,0,1,0,2.0725931,0,1 @ F,0,0,1,0,3.8101178,0,1 @ F,0,0,1,0,2.0767858,0,1 @ F,0,0,1,0,1.9930642,0,1 @ F,0,0,1,0,6.015205,0,1 @ F,0,1,1,0,3.8101178,0,1 @ F,0,0,1,0,1.7131747,0,1 @ F,0,0,1,0,1.0136615,0,1 @ F,0,0,1,0,1.0721124,0,1 @ F,0,0,1,0,1.0826536,0,1 @ F,0,0,1,0,1.5510358,0,1 @ F,0,0,1,0,1.7124924,0,1 @ F,0,0,1,0,1.8062165,0,1 @ F,0,0,1,0,1.8076174,0,1 @ F,0,0,1,0,1.4522531,0,1 @ F,0,0,1,0,1.7552304,0,1 @ F,0,0,1,0,1.2650714,0,1 @ F,0,0,1,0,1.7647603,0,1"
       unit="px"
       method="auto"
       mode="F"
       radius="0"
       chamfer_steps="1"
       flexible="false"
       use_knot_distance="true"
       apply_no_radius="true"
       apply_with_radius="true"
       only_selected="false"
       hide_knots="false" />
    <inkscape:path-effect
       effect="fillet_chamfer"
       id="path-effect2694"
       is_visible="true"
       lpeversion="1"
       nodesatellites_param="F,0,0,1,0,1.2501498,0,1 @ F,0,0,1,0,1.701826,0,1 @ F,0,0,1,0,1.128799,0,1 @ F,0,0,1,0,1.5107661,0,1 @ F,0,0,1,0,2.0725931,0,1 @ F,0,0,1,0,3.8101178,0,1 @ F,0,0,1,0,2.0767858,0,1 @ F,0,0,1,0,1.9930642,0,1 @ F,0,0,1,0,6.015205,0,1 @ F,0,1,1,0,3.8101178,0,1 @ F,0,0,1,0,1.7131747,0,1 @ F,0,0,1,0,1.0136615,0,1 @ F,0,0,1,0,1.0721124,0,1 @ F,0,0,1,0,1.0826536,0,1 @ F,0,0,1,0,1.5510358,0,1 @ F,0,0,1,0,1.7124924,0,1 @ F,0,0,1,0,1.8062165,0,1 @ F,0,0,1,0,1.8076174,0,1 @ F,0,0,1,0,1.4522531,0,1 @ F,0,0,1,0,1.7552304,0,1 @ F,0,0,1,0,1.2650714,0,1 @ F,0,0,1,0,1.7647603,0,1"
       unit="px"
       method="auto"
       mode="F"
       radius="0"
       chamfer_steps="1"
       flexible="false"
       use_knot_distance="true"
       apply_no_radius="true"
       apply_with_radius="true"
       only_selected="false"
       hide_knots="false" />
    <inkscape:path-effect
       effect="fillet_chamfer"
       id="path-effect2571"
       is_visible="true"
       lpeversion="1"
       nodesatellites_param="F,0,0,1,0,1.2501498,0,1 @ F,0,0,1,0,1.701826,0,1 @ F,0,0,1,0,1.128799,0,1 @ F,0,0,1,0,1.5107661,0,1 @ F,0,0,1,0,2.0725931,0,1 @ F,0,0,1,0,3.8101178,0,1 @ F,0,0,1,0,2.0767858,0,1 @ F,0,0,1,0,1.9930642,0,1 @ F,0,0,1,0,6.015205,0,1 @ F,0,1,1,0,3.8101178,0,1 @ F,0,0,1,0,1.7131747,0,1 @ F,0,0,1,0,1.0136615,0,1 @ F,0,0,1,0,1.0721124,0,1 @ F,0,0,1,0,1.0826536,0,1 @ F,0,0,1,0,1.5510358,0,1 @ F,0,0,1,0,1.7124924,0,1 @ F,0,0,1,0,1.8062165,0,1 @ F,0,0,1,0,1.8076174,0,1 @ F,0,0,1,0,1.4522531,0,1 @ F,0,0,1,0,1.7552304,0,1 @ F,0,0,1,0,1.2650714,0,1 @ F,0,0,1,0,1.7647603,0,1"
       unit="px"
       method="auto"
       mode="F"
       radius="0"
       chamfer_steps="1"
       flexible="false"
       use_knot_distance="true"
       apply_no_radius="true"
       apply_with_radius="true"
       only_selected="false"
       hide_knots="false" />
    <inkscape:path-effect
       effect="fillet_chamfer"
       id="path-effect2451"
       is_visible="true"
       lpeversion="1"
       nodesatellites_param="F,0,0,1,0,1.2501498,0,1 @ F,0,0,1,0,1.701826,0,1 @ F,0,0,1,0,1.128799,0,1 @ F,0,0,1,0,1.5107661,0,1 @ F,0,0,1,0,2.0725931,0,1 @ F,0,0,1,0,3.8101178,0,1 @ F,0,0,1,0,2.0767858,0,1 @ F,0,0,1,0,1.9930642,0,1 @ F,0,0,1,0,6.015205,0,1 @ F,0,1,1,0,3.8101178,0,1 @ F,0,0,1,0,1.7131747,0,1 @ F,0,0,1,0,1.0136615,0,1 @ F,0,0,1,0,1.0721124,0,1 @ F,0,0,1,0,1.0826536,0,1 @ F,0,0,1,0,1.5510358,0,1 @ F,0,0,1,0,1.7124924,0,1 @ F,0,0,1,0,1.8062165,0,1 @ F,0,0,1,0,1.8076174,0,1 @ F,0,0,1,0,1.4522531,0,1 @ F,0,0,1,0,1.7552304,0,1 @ F,0,0,1,0,1.2650714,0,1 @ F,0,0,1,0,1.7647603,0,1"
       unit="px"
       method="auto"
       mode="F"
       radius="0"
       chamfer_steps="1"
       flexible="false"
       use_knot_distance="true"
       apply_no_radius="true"
       apply_with_radius="true"
       only_selected="false"
       hide_knots="false" />
    <inkscape:path-effect
       effect="offset"
       id="path-effect829"
       is_visible="true"
       lpeversion="1.2"
       linejoin_type="miter"
       unit="mm"
       offset="3"
       miter_limit="4"
       attempt_force_join="false"
       update_on_knot_move="true" />
    <inkscape:path-effect
       effect="offset"
       id="path-effect719"
       is_visible="true"
       lpeversion="1.2"
       linejoin_type="miter"
       unit="mm"
       offset="1"
       miter_limit="4"
       attempt_force_join="false"
       update_on_knot_move="true" />
    <inkscape:path-effect
       effect="offset"
       id="path-effect966"
       is_visible="true"
       lpeversion="1.2"
       linejoin_type="miter"
       unit="mm"
       offset="3"
       miter_limit="4"
       attempt_force_join="false"
       update_on_knot_move="true" />
    <inkscape:path-effect
       effect="offset"
       id="path-effect860"
       is_visible="true"
       lpeversion="1.2"
       linejoin_type="miter"
       unit="mm"
       offset="3"
       miter_limit="4"
       attempt_force_join="false"
       update_on_knot_move="true" />
  </defs>
  <g
     inkscape:label="Layer 1"
     inkscape:groupmode="layer"
     id="layer1"
     transform="translate(29.618573,-39.790561)">
    <ellipse
       style="fill:#ffffff;fill-opacity:0;stroke:#000000;stroke-width:0.11355"
       id="path328"
       cx="-25.925718"
       cy="137.94321"
       rx="0.94322491"
       ry="0.94322509" />
    <path
       style="fill:none;stroke:#000000;stroke-width:0.264583px;stroke-linecap:butt;stroke-linejoin:miter;stroke-opacity:1"
       d="m 243.24467,122.61032 h 3.86812 v 0.84323 h 6.04595 l 7.9e-4,-0.84323 h 3.86742 v 15.2254 h -3.86813 v -0.84322 h -6.04595 v 0.84322 h -3.86812 z"
       id="path4117" />
    <path
       style="fill:none;stroke:#000000;stroke-width:0.264583px;stroke-linecap:butt;stroke-linejoin:miter;stroke-opacity:1"
       d="m 262.29467,119.02956 h 3.86812 v 0.84323 h 6.04595 l 7.9e-4,-0.84323 h 3.86742 v 15.2254 h -3.86813 v -0.84322 h -6.04595 v 0.84322 h -3.86812 z"
       id="path4145" />
    <path
       style="fill:none;stroke:#000000;stroke-width:0.264583px;stroke-linecap:butt;stroke-linejoin:miter;stroke-opacity:1"
       d="m 281.34467,115.63927 h 3.86812 v 0.84323 h 6.04595 l 7.9e-4,-0.84323 h 3.86742 v 15.2254 h -3.86813 v -0.84322 h -6.04595 v 0.84322 h -3.86812 z"
       id="path4151" />
    <path
       style="fill:none;stroke:#000000;stroke-width:0.264583px;stroke-linecap:butt;stroke-linejoin:miter;stroke-opacity:1"
       d="m 300.39467,119.02956 h 3.86812 v 0.84323 h 6.04595 l 7.9e-4,-0.84323 h 3.86742 v 15.2254 h -3.86813 v -0.84322 h -6.04595 v 0.84322 h -3.86812 z"
       id="path4157" />
    <path
       style="fill:none;stroke:#000000;stroke-width:0.264583px;stroke-linecap:butt;stroke-linejoin:miter;stroke-opacity:1"
       d="m 319.44467,125.63481 h 3.86812 v 0.84323 h 6.04595 l 7.9e-4,-0.84323 h 3.86742 v 15.2254 h -3.86813 v -0.84322 h -6.04595 v 0.84322 h -3.86812 z"
       id="path4163" />
    <path
       style="fill:none;stroke:#000000;stroke-width:0.264583px;stroke-linecap:butt;stroke-linejoin:miter;stroke-opacity:1"
       d="m 243.24467,103.56032 h 3.86812 v 0.84323 h 6.04595 l 7.9e-4,-0.84323 h 3.86742 v 15.2254 h -3.86813 v -0.84322 h -6.04595 v 0.84322 h -3.86812 z"
       id="path4169" />
    <path
       style="fill:none;stroke:#000000;stroke-width:0.264583px;stroke-linecap:butt;stroke-linejoin:miter;stroke-opacity:1"
       d="m 262.29467,99.979564 h 3.86812 v 0.843226 h 6.04595 l 7.9e-4,-0.843226 h 3.86742 v 15.225396 h -3.86813 v -0.84322 h -6.04595 v 0.84322 h -3.86812 z"
       id="path4175" />
    <path
       style="fill:none;stroke:#000000;stroke-width:0.264583px;stroke-linecap:butt;stroke-linejoin:miter;stroke-opacity:1"
       d="m 281.34467,96.589267 h 3.86812 v 0.84323 h 6.04595 l 7.9e-4,-0.84323 h 3.86742 v 15.225403 h -3.86813 v -0.84322 h -6.04595 v 0.84322 h -3.86812 z"
       id="path4181" />
    <path
       style="fill:none;stroke:#000000;stroke-width:0.264583px;stroke-linecap:butt;stroke-linejoin:miter;stroke-opacity:1"
       d="m 300.39467,99.979564 h 3.86812 v 0.843226 h 6.04595 l 7.9e-4,-0.843226 h 3.86742 v 15.225396 h -3.86813 v -0.84322 h -6.04595 v 0.84322 h -3.86812 z"
       id="path4187" />
    <path
       style="fill:none;stroke:#000000;stroke-width:0.264583px;stroke-linecap:butt;stroke-linejoin:miter;stroke-opacity:1"
       d="m 319.44467,106.58481 h 3.86812 v 0.84323 h 6.04595 l 7.9e-4,-0.84323 h 3.86742 v 15.2254 h -3.86813 v -0.84322 h -6.04595 v 0.84322 h -3.86812 z"
       id="path4193" />
    <path
       style="fill:none;stroke:#000000;stroke-width:0.264583px;stroke-linecap:butt;stroke-linejoin:miter;stroke-opacity:1"
       d="m 243.24467,84.510321 h 3.86812 v 0.84323 h 6.04595 l 7.9e-4,-0.84323 h 3.86742 v 15.2254 h -3.86813 v -0.84322 h -6.04595 v 0.84322 h -3.86812 z"
       id="path4199" />
    <path
       style="fill:none;stroke:#000000;stroke-width:0.264583px;stroke-linecap:butt;stroke-linejoin:miter;stroke-opacity:1"
       d="m 262.29467,80.929564 h 3.86812 v 0.84323 h 6.04595 l 7.9e-4,-0.84323 h 3.86742 v 15.2254 h -3.86813 v -0.84322 h -6.04595 v 0.84322 h -3.86812 z"
       id="path4205" />
    <path
       style="fill:none;stroke:#000000;stroke-width:0.264583px;stroke-linecap:butt;stroke-linejoin:miter;stroke-opacity:1"
       d="m 281.34467,77.539267 h 3.86812 v 0.84323 h 6.04595 l 7.9e-4,-0.84323 h 3.86742 v 15.2254 h -3.86813 v -0.84322 h -6.04595 v 0.84322 h -3.86812 z"
       id="path4211" />
    <path
       style="fill:none;stroke:#000000;stroke-width:0.264583px;stroke-linecap:butt;stroke-linejoin:miter;stroke-opacity:1"
       d="m 300.39467,80.929564 h 3.86812 v 0.84323 h 6.04595 l 7.9e-4,-0.84323 h 3.86742 v 15.2254 h -3.86813 v -0.84322 h -6.04595 v 0.84322 h -3.86812 z"
       id="path4217" />
    <path
       style="fill:none;stroke:#000000;stroke-width:0.264583px;stroke-linecap:butt;stroke-linejoin:miter;stroke-opacity:1"
       d="m 319.44467,87.534814 h 3.86812 v 0.84323 h 6.04595 l 7.9e-4,-0.84323 h 3.86742 v 15.225396 h -3.86813 v -0.84322 h -6.04595 v 0.84322 h -3.86812 z"
       id="path4223" />
    <path
       style="fill:none;stroke:#000000;stroke-width:0.264583px;stroke-linecap:butt;stroke-linejoin:miter;stroke-opacity:1"
       d="m 220.49186,155.7159 3.4026,-1.83975 0.40106,0.74175 5.31832,-2.87557 -0.40036,-0.74213 3.40198,-1.83942 7.2415,13.39304 -3.40261,1.83976 -0.40105,-0.74174 -5.31833,2.87557 0.40106,0.74174 -3.4026,1.83975 z"
       id="path4533" />
    <path
       style="fill:none;stroke:#000000;stroke-width:0.264583px;stroke-linecap:butt;stroke-linejoin:miter;stroke-opacity:1"
       d="m 264.69258,141.66032 h 3.86812 v 0.84323 h 6.04595 l 7.9e-4,-0.84323 h 3.86742 v 15.2254 h -3.86813 v -0.84322 h -6.04595 v 0.84322 h -3.86812 z"
       id="path4539" />
    <path
       style="fill:none;stroke:#000000;stroke-width:0.264583px;stroke-linecap:butt;stroke-linejoin:miter;stroke-opacity:1"
       d="m 241.50394,146.12156 3.73538,-1.00466 0.21901,0.81429 5.83846,-1.57029 -0.21824,-0.8145 3.7347,-1.00447 3.95444,14.7029 -3.73539,1.00466 -0.21901,-0.81429 -5.83846,1.5703 0.21901,0.81428 -3.73538,1.00465 z"
       id="path4545" />
    <path
       style="fill:none;stroke:#000000;stroke-width:0.264583px;stroke-linecap:butt;stroke-linejoin:miter;stroke-opacity:1"
       d="m 217.06677,155.04529 23.45762,-12.93311 0.21019,-60.48613 h 18.36994 v -3.189631 h 19.13352 v -3.651618 h 19.32721 v 3.686273 h 19.16801 v 6.925547 h 19.18898 v 59.013069 h -19.14027 v -6.55112 h -18.62438 v -3.85343 H 281.3883 v 25.35954 h -18.92985 l -18.60203,4.1206 -17.29368,9.18292 z"
       id="path371"
       sodipodi:nodetypes="ccccccccccccccccccccccc" />
    <ellipse
       style="fill:#ffffff;fill-opacity:0;stroke:#000000;stroke-width:0.11355"
       id="path328-3"
       cx="239.70476"
       cy="154.07045"
       rx="0.94322491"
       ry="0.94322509" />
    <ellipse
       style="fill:#ffffff;fill-opacity:0;stroke:#000000;stroke-width:0.11355"
       id="path328-6"
       cx="260.16791"
       cy="140.16116"
       rx="0.94322491"
       ry="0.94322509" />
    <ellipse
       style="fill:#ffffff;fill-opacity:0;stroke:#000000;stroke-width:0.11355"
       id="path328-7"
       cx="259.5657"
       cy="101.72928"
       rx="0.94322491"
       ry="0.94322509" />
    <ellipse
       style="fill:#ffffff;fill-opacity:0;stroke:#000000;stroke-width:0.11355"
       id="path328-5"
       cx="316.75818"
       cy="98.088448"
       rx="0.94322491"
       ry="0.94322509" />
    <ellipse
       style="fill:#ffffff;fill-opacity:0;stroke:#000000;stroke-width:0.11355"
       id="path328-62"
       cx="316.85095"
       cy="123.41387"
       rx="0.94322491"
       ry="0.94322509" />
    <path
       style="fill:none;stroke:#000000;stroke-width:0.264583px;stroke-linecap:butt;stroke-linejoin:miter;stroke-opacity:1"
       d="m 393.59472,155.7159 c 4.09149,-2.21222 8.53038,-4.6123 12.1236,-6.55512 l 7.2415,13.39304 -12.12353,6.55508 z"
       id="path358"
       sodipodi:nodetypes="ccccc" />
    <path
       style="fill:none;stroke:#000000;stroke-width:0.264583px;stroke-linecap:butt;stroke-linejoin:miter;stroke-opacity:1"
       d="m 414.6068,146.12156 13.30931,-3.57963 3.95444,14.7029 -13.30923,3.5796 z"
       id="path362"
       sodipodi:nodetypes="ccccc" />
    <path
       style="fill:none;stroke:#000000;stroke-width:0.264583px;stroke-linecap:butt;stroke-linejoin:miter;stroke-opacity:1"
       d="m 390.16964,155.04529 23.45761,-12.93311 0.21019,-60.486128 h 18.36994 v -3.189631 h 19.13352 v -3.651618 h 19.32721 v 3.686273 h 19.16801 v 6.925547 h 19.18898 v 59.013067 h -19.14027 v -6.55112 h -18.62438 v -3.85343 h -16.76929 v 25.35954 h -18.92985 l -18.60203,4.1206 -17.29368,9.18292 z"
       id="path364"
       sodipodi:nodetypes="ccccccccccccccccccccccc" />
    <rect
       style="fill:#ffffff;fill-opacity:0;stroke:#000000;stroke-width:0.2"
       id="rect929"
       width="13.78228"
       height="15.2254"
       x="437.79547"
       y="141.66032" />
    <rect
       style="fill:#ffffff;fill-opacity:0;stroke:#000000;stroke-width:0.2"
       id="rect929-3"
       width="13.78228"
       height="15.2254"
       x="416.34756"
       y="122.57803" />
    <rect
       style="fill:#ffffff;fill-opacity:0;stroke:#000000;stroke-width:0.2"
       id="rect929-6"
       width="13.78228"
       height="15.2254"
       x="435.39755"
       y="118.99727" />
    <rect
       style="fill:#ffffff;fill-opacity:0;stroke:#000000;stroke-width:0.2"
       id="rect929-7"
       width="13.78228"
       height="15.2254"
       x="454.44754"
       y="115.60698" />
    <rect
       style="fill:#ffffff;fill-opacity:0;stroke:#000000;stroke-width:0.2"
       id="rect929-5"
       width="13.78228"
       height="15.2254"
       x="473.49753"
       y="118.99727" />
    <rect
       style="fill:#ffffff;fill-opacity:0;stroke:#000000;stroke-width:0.2"
       id="rect929-35"
       width="13.78228"
       height="15.2254"
       x="492.54752"
       y="125.60252" />
    <rect
       style="fill:#ffffff;fill-opacity:0;stroke:#000000;stroke-width:0.2"
       id="rect929-62"
       width="13.78228"
       height="15.2254"
       x="492.54752"
       y="106.55251" />
    <rect
       style="fill:#ffffff;fill-opacity:0;stroke:#000000;stroke-width:0.2"
       id="rect929-9"
       width="13.78228"
       height="15.2254"
       x="492.54752"
       y="87.502525" />
    <rect
       style="fill:#ffffff;fill-opacity:0;stroke:#000000;stroke-width:0.2"
       id="rect929-1"
       width="13.78228"
       height="15.2254"
       x="473.49753"
       y="80.89727" />
    <rect
       style="fill:#ffffff;fill-opacity:0;stroke:#000000;stroke-width:0.2"
       id="rect929-2"
       width="13.78228"
       height="15.2254"
       x="473.49753"
       y="99.947273" />
    <rect
       style="fill:#ffffff;fill-opacity:0;stroke:#000000;stroke-width:0.2"
       id="rect929-93"
       width="13.78228"
       height="15.2254"
       x="454.44754"
       y="77.506973" />
    <rect
       style="fill:#ffffff;fill-opacity:0;stroke:#000000;stroke-width:0.2"
       id="rect929-60"
       width="13.78228"
       height="15.2254"
       x="454.44754"
       y="96.556976" />
    <rect
       style="fill:#ffffff;fill-opacity:0;stroke:#000000;stroke-width:0.2"
       id="rect929-18"
       width="13.78228"
       height="15.2254"
       x="435.39755"
       y="80.961853" />
    <rect
       style="fill:#ffffff;fill-opacity:0;stroke:#000000;stroke-width:0.2"
       id="rect929-20"
       width="13.78228"
       height="15.2254"
       x="416.34756"
       y="103.52802" />
    <rect
       style="fill:#ffffff;fill-opacity:0;stroke:#000000;stroke-width:0.2"
       id="rect929-23"
       width="13.78228"
       height="15.2254"
       x="416.34756"
       y="84.510323" />
    <rect
       style="fill:#ffffff;fill-opacity:0;stroke:#000000;stroke-width:0.2"
       id="rect929-79"
       width="13.78228"
       height="15.2254"
       x="435.39755"
       y="99.947273" />
    <ellipse
       style="fill:#ffffff;fill-opacity:0;stroke:#000000;stroke-width:0.11355"
       id="ellipse668"
       cx="412.80765"
       cy="154.07045"
       rx="0.94322491"
       ry="0.94322509" />
    <ellipse
       style="fill:#ffffff;fill-opacity:0;stroke:#000000;stroke-width:0.11355"
       id="ellipse670"
       cx="433.27078"
       cy="140.16116"
       rx="0.94322491"
       ry="0.94322509" />
    <ellipse
       style="fill:#ffffff;fill-opacity:0;stroke:#000000;stroke-width:0.11355"
       id="ellipse672"
       cx="432.66858"
       cy="101.72928"
       rx="0.94322491"
       ry="0.94322509" />
    <ellipse
       style="fill:#ffffff;fill-opacity:0;stroke:#000000;stroke-width:0.11355"
       id="ellipse674"
       cx="489.86102"
       cy="98.088448"
       rx="0.94322491"
       ry="0.94322509" />
    <ellipse
       style="fill:#ffffff;fill-opacity:0;stroke:#000000;stroke-width:0.11355"
       id="ellipse676"
       cx="489.9538"
       cy="123.41387"
       rx="0.94322491"
       ry="0.94322509" />
    <text
       xml:space="preserve"
       style="font-size:4.23333px;line-height:1.25;font-family:'Maven Pro';-inkscape-font-specification:'Maven Pro';stroke-width:0.264583"
       x="-7.6175566"
       y="92.501678"
       id="text569"><tspan
         sodipodi:role="line"
         id="tspan567"
         style="stroke-width:0.264583"
         x="-7.6175566"
         y="92.501678">Keyhole with clearance</tspan></text>
    <text
       xml:space="preserve"
       style="font-size:4.23333px;line-height:1.25;font-family:'Maven Pro';-inkscape-font-specification:'Maven Pro';stroke-width:0.264583"
       x="-7.3382859"
       y="129.72169"
       id="text573"><tspan
         sodipodi:role="line"
         id="tspan571"
         style="stroke-width:0.264583"
         x="-7.3382859"
         y="129.72169">Keyhole open</tspan></text>
    <text
       xml:space="preserve"
       style="font-size:4.23333px;line-height:1.25;font-family:'Maven Pro';-inkscape-font-specification:'Maven Pro';stroke-width:0.264583"
       x="-7.3225923"
       y="109.18065"
       id="text577"><tspan
         sodipodi:role="line"
         id="tspan575"
         style="stroke-width:0.264583"
         x="-7.3225923"
         y="109.18065">Keyhole locking</tspan></text>
    <text
       xml:space="preserve"
       style="font-size:4.23333px;line-height:1.25;font-family:'Maven Pro';-inkscape-font-specification:'Maven Pro';stroke-width:0.264583"
       x="-22.164051"
       y="139.4897"
       id="text581"><tspan
         sodipodi:role="line"
         id="tspan579"
         style="stroke-width:0.264583"
         x="-22.164051"
         y="139.4897">Screw hole</tspan></text>
    <text
       xml:space="preserve"
       style="font-size:4.23333px;line-height:1.25;font-family:'Maven Pro';-inkscape-font-specification:'Maven Pro';stroke-width:0.264583"
       x="273.37665"
       y="54.670521"
       id="text652"><tspan
         sodipodi:role="line"
         id="tspan650"
         style="stroke-width:0.264583"
         x="273.37665"
         y="54.670521">Locking layer</tspan></text>
    <text
       xml:space="preserve"
       style="font-size:4.23333px;line-height:1.25;font-family:'Maven Pro';-inkscape-font-specification:'Maven Pro';stroke-width:0.264583"
       x="448.5423"
       y="54.803055"
       id="text656"><tspan
         sodipodi:role="line"
         id="tspan654"
         style="stroke-width:0.264583"
         x="448.5423"
         y="54.803055">Open layer</tspan></text>
    <text
       xml:space="preserve"
       style="font-size:4.23333px;line-height:1.25;font-family:'Maven Pro';-inkscape-font-specification:'Maven Pro';stroke-width:0.264583"
       x="633.93286"
       y="42.707325"
       id="text660"><tspan
         sodipodi:role="line"
         id="tspan658"
         style="stroke-width:0.264583"
         x="633.93286"
         y="42.707325">Case wall</tspan></text>
    <text
       xml:space="preserve"
       style="font-size:4.23333px;line-height:1.25;font-family:'Maven Pro';-inkscape-font-specification:'Maven Pro';stroke-width:0.264583"
       x="414.22028"
       y="60.379646"
       id="text852"><tspan
         sodipodi:role="line"
         id="tspan850"
         style="stroke-width:0.264583"
         x="414.22028"
         y="60.379646">Copy locking layer, replace keyholes with open</tspan></text>
    <text
       xml:space="preserve"
       style="font-size:4.23333px;line-height:1.25;font-family:'Maven Pro';-inkscape-font-specification:'Maven Pro';stroke-width:0.264583"
       x="545.43591"
       y="48.661636"
       id="text856"><tspan
         sodipodi:role="line"
         style="stroke-width:0.264583"
         x="545.43591"
         y="48.661636"
         id="tspan862">Copy outline and screw holes from locking layer, select the outline then open path &gt; path effects,</tspan><tspan
         sodipodi:role="line"
         style="stroke-width:0.264583"
         x="545.43591"
         y="53.9533"
         id="tspan939">click plus, choose offset, set the value to 1mm, then path &gt; object to path. Duplicte the outline</tspan><tspan
         sodipodi:role="line"
         style="stroke-width:0.264583"
         x="545.43591"
         y="59.244961"
         id="tspan941">with ctrl + d, then add another offset of 3mm, then repeat object to path. Feel free to round out</tspan><tspan
         sodipodi:role="line"
         style="stroke-width:0.264583"
         x="545.43591"
         y="64.536621"
         id="tspan2012">the outer wall corners if desired using the &quot;Corners&quot; path effect, make sure to repeat &quot;object to path&quot;.</tspan></text>
    <text
       xml:space="preserve"
       style="font-size:4.23333px;line-height:1.25;font-family:'Maven Pro';-inkscape-font-specification:'Maven Pro';stroke-width:0.264583"
       x="826.15869"
       y="47.139519"
       id="text958"><tspan
         sodipodi:role="line"
         id="tspan956"
         style="stroke-width:0.264583"
         x="826.15869"
         y="47.139519">Case bottom</tspan></text>
    <text
       xml:space="preserve"
       style="font-size:4.23333px;line-height:1.25;font-family:'Maven Pro';-inkscape-font-specification:'Maven Pro';stroke-width:0.264583"
       x="782.5174"
       y="54.070915"
       id="text962"><tspan
         sodipodi:role="line"
         id="tspan960"
         style="stroke-width:0.264583"
         x="782.5174"
         y="54.070915">Copy outline and screw holes from case wall, delete the screw holes on case wall</tspan><tspan
         sodipodi:role="line"
         style="stroke-width:0.264583"
         x="782.5174"
         y="59.362579"
         id="tspan964">as they are no longer needed, delete inner wall from case bottom, adjust screw holes to</tspan><tspan
         sodipodi:role="line"
         style="stroke-width:0.264583"
         x="782.5174"
         y="64.654236"
         id="tspan1057">desired size (ctrl+shift+scale each one)</tspan></text>
    <text
       xml:space="preserve"
       style="font-size:4.23333px;line-height:1.25;font-family:'Maven Pro';-inkscape-font-specification:'Maven Pro';stroke-width:0.264583"
       x="243.08611"
       y="61.163883"
       id="text1062"><tspan
         sodipodi:role="line"
         id="tspan1060"
         style="stroke-width:0.264583"
         x="243.08611"
         y="61.163883">Copy layout, add an outline and screw holes</tspan></text>
    <text
       xml:space="preserve"
       style="font-size:4.23333px;line-height:1.25;font-family:'Maven Pro';-inkscape-font-specification:'Maven Pro';stroke-width:0.264583"
       x="225.94064"
       y="198.28174"
       id="text1348"><tspan
         sodipodi:role="line"
         id="tspan1346"
         style="stroke-width:0.264583"
         x="225.94064"
         y="198.28174">Copy locking layer, open layer, case wall, and case bottom, for each one select all the parts and got to path &gt; combine, then file &gt; export, choose selection, choose SVG, and name each file accordingly</tspan></text>
    <path
       id="ellipse1492"
       style="fill:#ffffff;fill-opacity:0;stroke:#000000;stroke-width:0.11355"
       d="m 317.79416,277.77985 a 0.94322491,0.94322509 0 0 1 -0.94322,0.94322 0.94322491,0.94322509 0 0 1 -0.94323,-0.94322 0.94322491,0.94322509 0 0 1 0.94323,-0.94323 0.94322491,0.94322509 0 0 1 0.94322,0.94323 z m -0.0928,-25.32544 a 0.94322491,0.94322509 0 0 1 -0.94323,0.94322 0.94322491,0.94322509 0 0 1 -0.94322,-0.94322 0.94322491,0.94322509 0 0 1 0.94322,-0.94323 0.94322491,0.94322509 0 0 1 0.94323,0.94323 z m -57.19246,3.64084 a 0.94322491,0.94322509 0 0 1 -0.94322,0.94322 0.94322491,0.94322509 0 0 1 -0.94323,-0.94322 0.94322491,0.94322509 0 0 1 0.94323,-0.94323 0.94322491,0.94322509 0 0 1 0.94322,0.94323 z m 0.6022,38.43188 a 0.94322491,0.94322509 0 0 1 -0.94323,0.94323 0.94322491,0.94322509 0 0 1 -0.94322,-0.94323 0.94322491,0.94322509 0 0 1 0.94322,-0.94322 0.94322491,0.94322509 0 0 1 0.94323,0.94322 z m -20.46311,13.90927 a 0.94322491,0.94322509 0 0 1 -0.94323,0.94323 0.94322491,0.94322509 0 0 1 -0.94322,-0.94323 0.94322491,0.94322509 0 0 1 0.94322,-0.94322 0.94322491,0.94322509 0 0 1 0.94323,0.94322 z m -23.58122,0.97486 23.45762,-12.93311 0.21019,-60.48613 h 18.36994 v -3.18964 h 19.13352 v -3.65161 h 19.32721 v 3.68627 h 19.16801 v 6.92555 h 19.18898 v 59.01307 h -19.14027 v -6.55112 h -18.62438 v -3.85343 H 281.3883 v 25.35954 h -18.92985 l -18.60203,4.1206 -17.29368,9.18292 z m 24.43717,-8.92373 3.73538,-1.00466 0.21901,0.81429 5.83846,-1.57029 -0.21824,-0.8145 3.7347,-1.00447 3.95444,14.7029 -3.73539,1.00466 -0.21901,-0.81429 -5.83846,1.5703 0.21901,0.81428 -3.73538,1.00465 z m 23.18864,-4.46124 h 3.86812 v 0.84323 h 6.04595 l 7.9e-4,-0.84323 h 3.86742 v 15.2254 h -3.86813 v -0.84322 h -6.04595 v 0.84322 h -3.86812 z m -44.20072,14.05558 3.4026,-1.83975 0.40106,0.74175 5.31832,-2.87557 -0.40036,-0.74213 3.40198,-1.83942 7.2415,13.39304 -3.40261,1.83976 -0.40105,-0.74174 -5.31833,2.87557 0.40106,0.74174 -3.4026,1.83975 z m 98.95281,-68.18109 h 3.86812 v 0.84323 h 6.04595 l 7.9e-4,-0.84323 h 3.86742 v 15.2254 h -3.86813 v -0.84322 h -6.04595 v 0.84322 h -3.86812 z m -19.05,-6.60525 h 3.86812 v 0.84323 h 6.04595 l 7.9e-4,-0.84323 h 3.86742 v 15.2254 h -3.86813 v -0.84322 h -6.04595 v 0.84322 h -3.86812 z m -19.05,-3.3903 h 3.86812 v 0.84323 h 6.04595 l 7.9e-4,-0.84323 h 3.86742 v 15.2254 h -3.86813 v -0.84322 h -6.04595 v 0.84322 h -3.86812 z m -19.05,3.3903 h 3.86812 v 0.84323 h 6.04595 l 7.9e-4,-0.84323 h 3.86742 v 15.2254 h -3.86813 v -0.84322 h -6.04595 v 0.84322 h -3.86812 z m -19.05,3.58076 h 3.86812 v 0.84323 h 6.04595 l 7.9e-4,-0.84323 h 3.86742 v 15.2254 h -3.86813 v -0.84322 h -6.04595 v 0.84322 h -3.86812 z m 76.2,22.07449 h 3.86812 v 0.84323 h 6.04595 l 7.9e-4,-0.84323 h 3.86742 v 15.2254 h -3.86813 v -0.84322 h -6.04595 v 0.84322 h -3.86812 z m -19.05,-6.60525 h 3.86812 v 0.84323 h 6.04595 l 7.9e-4,-0.84323 h 3.86742 v 15.2254 h -3.86813 v -0.84322 h -6.04595 v 0.84322 h -3.86812 z m -19.05,-3.3903 h 3.86812 v 0.84323 h 6.04595 l 7.9e-4,-0.84323 h 3.86742 v 15.22541 h -3.86813 v -0.84322 h -6.04595 v 0.84322 h -3.86812 z m -19.05,3.3903 h 3.86812 v 0.84323 h 6.04595 l 7.9e-4,-0.84323 h 3.86742 v 15.2254 h -3.86813 v -0.84322 h -6.04595 v 0.84322 h -3.86812 z m -19.05,3.58076 h 3.86812 v 0.84323 h 6.04595 l 7.9e-4,-0.84323 h 3.86742 v 15.2254 h -3.86813 v -0.84322 h -6.04595 v 0.84322 h -3.86812 z m 76.2,22.07449 h 3.86812 v 0.84323 h 6.04595 l 7.9e-4,-0.84323 h 3.86742 v 15.2254 h -3.86813 v -0.84322 h -6.04595 v 0.84322 h -3.86812 z m -19.05,-6.60525 h 3.86812 v 0.84323 h 6.04595 l 7.9e-4,-0.84323 h 3.86742 v 15.2254 h -3.86813 v -0.84322 h -6.04595 v 0.84322 h -3.86812 z m -19.05,-3.39029 h 3.86812 v 0.84323 h 6.04595 l 7.9e-4,-0.84323 h 3.86742 v 15.2254 h -3.86813 v -0.84322 h -6.04595 v 0.84322 h -3.86812 z m -19.05,3.39029 h 3.86812 v 0.84323 h 6.04595 l 7.9e-4,-0.84323 h 3.86742 v 15.2254 h -3.86813 v -0.84322 h -6.04595 v 0.84322 h -3.86812 z m -19.05,3.58076 h 3.86812 v 0.84323 h 6.04595 l 7.9e-4,-0.84323 h 3.86742 v 15.2254 h -3.86813 v -0.84322 h -6.04595 v 0.84322 h -3.86812 z"
       inkscape:export-filename="./kb_plate_locking.svg"
       inkscape:export-xdpi="96"
       inkscape:export-ydpi="96" />
    <path
       id="ellipse1540"
       style="fill:#ffffff;fill-opacity:0;stroke:#000000;stroke-width:0.11355"
       d="m 490.89703,275.13013 a 0.94322491,0.94322509 0 0 1 -0.94323,0.94322 0.94322491,0.94322509 0 0 1 -0.94322,-0.94322 0.94322491,0.94322509 0 0 1 0.94322,-0.94323 0.94322491,0.94322509 0 0 1 0.94323,0.94323 z m -0.0928,-25.32543 a 0.94322491,0.94322509 0 0 1 -0.94323,0.94323 0.94322491,0.94322509 0 0 1 -0.94322,-0.94323 0.94322491,0.94322509 0 0 1 0.94322,-0.94322 0.94322491,0.94322509 0 0 1 0.94323,0.94322 z m -57.19246,3.64084 a 0.94322491,0.94322509 0 0 1 -0.94323,0.94323 0.94322491,0.94322509 0 0 1 -0.94322,-0.94323 0.94322491,0.94322509 0 0 1 0.94322,-0.94322 0.94322491,0.94322509 0 0 1 0.94323,0.94322 z m 0.60219,38.43187 a 0.94322491,0.94322509 0 0 1 -0.94323,0.94323 0.94322491,0.94322509 0 0 1 -0.94322,-0.94323 0.94322491,0.94322509 0 0 1 0.94322,-0.94322 0.94322491,0.94322509 0 0 1 0.94323,0.94322 z m -20.46314,13.9093 a 0.94322491,0.94322509 0 0 1 -0.94322,0.94323 0.94322491,0.94322509 0 0 1 -0.94323,-0.94323 0.94322491,0.94322509 0 0 1 0.94323,-0.94322 0.94322491,0.94322509 0 0 1 0.94322,0.94322 z m 21.6467,-54.12318 h 13.78228 v 15.2254 h -13.78225 z m -19.04999,-15.43695 h 13.78228 v 15.2254 h -13.78228 z m -2e-5,19.0177 h 13.78228 v 15.2254 h -13.78228 z m 19.05001,-22.56616 h 13.78228 v 15.2254 h -13.78225 z m 19.04998,15.59512 h 13.78228 v 15.2254 H 454.4475 Z m 0,-19.05 h 13.78228 v 15.2254 H 454.4475 Z m 19.05001,22.44029 h 13.78228 v 15.2254 h -13.78228 z m 0,-19.05 h 13.78228 v 15.2254 h -13.78228 z m 19.04998,6.60525 h 13.78228 v 15.2254 h -13.78228 z m 0,19.04999 h 13.78228 v 15.2254 h -13.78228 z m 0,19.05002 h 13.78228 v 15.2254 h -13.78228 z m -19.04998,-6.60526 h 13.78228 v 15.2254 h -13.78228 z m -19.05001,-3.39029 h 13.78228 v 15.2254 H 454.4475 Z m -19.04998,3.39029 h 13.78228 v 15.2254 h -13.78225 z m -19.05001,3.58075 h 13.78228 v 15.2254 h -13.78228 z m 21.44791,19.08231 h 13.78228 v 15.2254 h -13.78225 z m -47.62581,13.38496 23.45761,-12.93311 0.21019,-60.48613 h 18.36994 v -3.18963 h 19.13352 v -3.65162 h 19.32721 v 3.68627 h 19.16801 v 6.92555 h 19.18898 v 59.01307 H 489.8848 v -6.55112 h -18.62435 v -3.85343 h -16.76929 v 25.35954 h -18.92985 l -18.60203,4.1206 -17.29368,9.18292 z m 24.43716,-8.92373 13.30931,-3.57963 3.95444,14.7029 -13.30923,3.5796 z m -21.01208,9.59434 c 4.09149,-2.21222 8.53038,-4.6123 12.1236,-6.55512 l 7.2415,13.39304 -12.12353,6.55508 z"
       inkscape:export-filename="./kb_plate_open.svg"
       inkscape:export-xdpi="96"
       inkscape:export-ydpi="96" />
    <text
       xml:space="preserve"
       style="font-size:4.23333px;line-height:1.25;font-family:'Maven Pro';-inkscape-font-specification:'Maven Pro';stroke-width:0.264583"
       x="266.40485"
       y="216.92815"
       id="text2431"><tspan
         sodipodi:role="line"
         id="tspan2429"
         style="stroke-width:0.264583"
         x="266.40485"
         y="216.92815">kb_plate_locking.svg</tspan></text>
    <text
       xml:space="preserve"
       style="font-size:4.23333px;line-height:1.25;font-family:'Maven Pro';-inkscape-font-specification:'Maven Pro';stroke-width:0.264583"
       x="441.3566"
       y="216.88663"
       id="text2938"><tspan
         sodipodi:role="line"
         id="tspan2936"
         style="stroke-width:0.264583"
         x="441.3566"
         y="216.88663">kb_plate_open.svg</tspan></text>
    <text
       xml:space="preserve"
       style="font-size:4.23333px;line-height:1.25;font-family:'Maven Pro';-inkscape-font-specification:'Maven Pro';stroke-width:0.264583"
       x="631.71204"
       y="213.84717"
       id="text3941"><tspan
         sodipodi:role="line"
         id="tspan3939"
         style="stroke-width:0.264583"
         x="631.71204"
         y="213.84717">kb_case_wall.svg</tspan></text>
    <text
       xml:space="preserve"
       style="font-size:4.23333px;line-height:1.25;font-family:'Maven Pro';-inkscape-font-specification:'Maven Pro';stroke-width:0.264583"
       x="821.95508"
       y="213.0804"
       id="text4282"><tspan
         sodipodi:role="line"
         id="tspan4280"
         style="stroke-width:0.264583"
         x="821.95508"
         y="213.0804">kb_case_bottom.svg</tspan></text>
    <path
       style="fill:none;stroke:#000000;stroke-width:0.264583px;stroke-linecap:butt;stroke-linejoin:miter;stroke-opacity:1"
       d="m 645.31375,73.785156 v 3.650391 h -19.13281 v 3.191406 h -18.36719 l -0.21289,60.894527 -23.80859,13.125 10.4375,19.3711 18.04687,-9.58594 18.36914,-4.06641 h 19.81836 v -25.35937 h 14.76954 v 3.85352 h 18.62304 v 6.55078 h 21.14063 V 84.396484 h -19.18946 v -6.925781 h -19.16797 v -3.685547 z"
       id="path600"
       sodipodi:nodetypes="ccccccccccccccccccccccc" />
    <path
       style="fill:none;stroke:#000000;stroke-width:0.264583px;stroke-linecap:butt;stroke-linejoin:miter;stroke-opacity:1"
       d="m 642.31375,72.035306 v 0.698415 a 1.701826,1.701826 0 0 1 -1.70183,1.701826 h -16.30218 a 1.128799,1.128799 0 0 0 -1.1288,1.128799 v 0.551841 a 1.5107661,1.5107661 0 0 1 -1.51077,1.510766 h -14.77406 a 2.0798392,2.0798392 0 0 0 -2.07982,2.07258 L 604.62002,135.936 a 6.4768036,6.4768036 0 0 1 -3.35002,5.64947 l -19.70976,10.86506 a 2.0968159,2.0968159 0 0 0 -0.83366,2.83088 l 11.33125,21.03041 a 2.0050511,2.0050511 0 0 0 2.7056,0.81975 l 13.24957,-7.03672 a 44.235918,44.235918 0 0 1 11.18543,-4.12182 l 8.05741,-1.7841 a 34.831543,34.831543 0 0 1 7.53014,-0.8237 h 16.96499 a 1.7131747,1.7131747 0 0 0 1.71317,-1.71317 v -22.63254 a 1.0136615,1.0136615 0 0 1 1.01366,-1.01366 h 6.68377 a 1.0721124,1.0721124 0 0 1 1.07211,1.07211 v 1.69876 a 1.0826536,1.0826536 0 0 0 1.08265,1.08265 h 15.98935 a 1.5510358,1.5510358 0 0 1 1.55104,1.55104 v 3.28725 a 1.7124924,1.7124924 0 0 0 1.71249,1.71249 h 23.62192 a 1.8062165,1.8062165 0 0 0 1.80622,-1.80622 V 83.204101 a 1.8076174,1.8076174 0 0 0 -1.80762,-1.807617 h -15.92959 a 1.4522531,1.4522531 0 0 1 -1.45225,-1.452253 v -3.718298 a 1.7552304,1.7552304 0 0 0 -1.75523,-1.75523 h -16.14767 a 1.2650714,1.2650714 0 0 1 -1.26507,-1.265071 v -0.655716 a 1.7647603,1.7647603 0 0 0 -1.76476,-1.76476 H 643.5639 a 1.2501498,1.2501498 0 0 0 -1.25015,1.25015 z"
       id="path827"
       sodipodi:nodetypes="ccccccccccccccccccccccc" />
    <ellipse
       style="fill:#ffffff;fill-opacity:0;stroke:#000000;stroke-width:0.23033"
       id="ellipse1172"
       cx="804.44025"
       cy="154.07045"
       rx="1.9132767"
       ry="1.913277" />
    <ellipse
       style="fill:#ffffff;fill-opacity:0;stroke:#000000;stroke-width:0.230306"
       id="ellipse1174"
       cx="824.90338"
       cy="140.16116"
       rx="1.9130787"
       ry="1.913079" />
    <ellipse
       style="fill:#ffffff;fill-opacity:0;stroke:#000000;stroke-width:0.227874"
       id="ellipse1176"
       cx="824.30121"
       cy="101.72928"
       rx="1.892881"
       ry="1.8928814" />
    <ellipse
       style="fill:#ffffff;fill-opacity:0;stroke:#000000;stroke-width:0.227936"
       id="ellipse1178"
       cx="881.49365"
       cy="98.088448"
       rx="1.893399"
       ry="1.8933992" />
    <ellipse
       style="fill:#ffffff;fill-opacity:0;stroke:#000000;stroke-width:0.232671"
       id="ellipse1180"
       cx="881.58643"
       cy="123.41387"
       rx="1.9327281"
       ry="1.9327284" />
    <path
       style="fill:none;stroke:#000000;stroke-width:0.264583px;stroke-linecap:butt;stroke-linejoin:miter;stroke-opacity:1"
       d="m 838.58337,72.408804 v 0.698415 a 1.701826,1.701826 0 0 1 -1.70183,1.701826 h -16.30218 a 1.128799,1.128799 0 0 0 -1.1288,1.128799 v 0.551841 a 1.5107661,1.5107661 0 0 1 -1.51077,1.510766 h -14.77406 a 2.0798392,2.0798392 0 0 0 -2.07982,2.07258 l -0.19627,56.236469 a 6.4768036,6.4768036 0 0 1 -3.35002,5.64947 l -19.70976,10.86506 a 2.0968159,2.0968159 0 0 0 -0.83366,2.83088 l 11.33125,21.03041 a 2.0050511,2.0050511 0 0 0 2.7056,0.81975 l 13.24957,-7.03672 a 44.235918,44.235918 0 0 1 11.18543,-4.12182 l 8.05741,-1.7841 a 34.831543,34.831543 0 0 1 7.53014,-0.8237 h 16.96499 a 1.7131747,1.7131747 0 0 0 1.71317,-1.71317 v -22.63254 a 1.0136615,1.0136615 0 0 1 1.01366,-1.01366 h 6.68377 a 1.0721124,1.0721124 0 0 1 1.07211,1.07211 v 1.69876 a 1.0826536,1.0826536 0 0 0 1.08265,1.08265 h 15.98935 a 1.5510358,1.5510358 0 0 1 1.55104,1.55104 v 3.28725 a 1.7124924,1.7124924 0 0 0 1.71249,1.71249 h 23.62192 a 1.8062165,1.8062165 0 0 0 1.80622,-1.80622 V 83.577599 a 1.8076174,1.8076174 0 0 0 -1.80762,-1.807617 h -15.92959 a 1.4522531,1.4522531 0 0 1 -1.45225,-1.452253 v -3.718298 a 1.7552304,1.7552304 0 0 0 -1.75523,-1.75523 h -16.14767 a 1.2650714,1.2650714 0 0 1 -1.26507,-1.265071 v -0.655716 a 1.7647603,1.7647603 0 0 0 -1.76476,-1.76476 h -24.31126 a 1.2501498,1.2501498 0 0 0 -1.25015,1.25015 z"
       id="path2567"
       sodipodi:nodetypes="ccccccccccccccccccccccc" />
    <path
       id="path2690"
       style="fill:none;stroke:#000000;stroke-width:0.264583px;stroke-linecap:butt;stroke-linejoin:miter;stroke-opacity:1"
       d="m 642.31375,220.54916 v 0.69841 a 1.701826,1.701826 0 0 1 -1.70183,1.70183 h -16.30218 a 1.128799,1.128799 0 0 0 -1.1288,1.1288 v 0.55183 a 1.5107661,1.5107661 0 0 1 -1.51077,1.51077 h -14.77406 a 2.0798392,2.0798392 0 0 0 -2.07982,2.07258 l -0.19627,56.23647 a 6.4768036,6.4768036 0 0 1 -3.35002,5.64947 l -19.70976,10.86506 a 2.0968159,2.0968159 0 0 0 -0.83366,2.83088 l 11.33125,21.03041 a 2.0050511,2.0050511 0 0 0 2.7056,0.81975 L 608.013,318.6087 a 44.235918,44.235918 0 0 1 11.18543,-4.12182 l 8.05741,-1.7841 a 34.831543,34.831543 0 0 1 7.53014,-0.8237 h 16.96499 a 1.7131747,1.7131747 0 0 0 1.71317,-1.71317 v -22.63254 a 1.0136615,1.0136615 0 0 1 1.01366,-1.01366 h 6.68377 a 1.0721124,1.0721124 0 0 1 1.07211,1.07211 v 1.69876 a 1.0826536,1.0826536 0 0 0 1.08265,1.08265 h 15.98935 a 1.5510358,1.5510358 0 0 1 1.55104,1.55104 v 3.28725 a 1.7124924,1.7124924 0 0 0 1.71249,1.71249 h 23.62192 a 1.8062165,1.8062165 0 0 0 1.80622,-1.80622 v -63.39984 a 1.8076174,1.8076174 0 0 0 -1.80762,-1.80762 h -15.92959 a 1.4522531,1.4522531 0 0 1 -1.45225,-1.45225 v -3.7183 a 1.7552304,1.7552304 0 0 0 -1.75523,-1.75523 h -16.14767 a 1.2650714,1.2650714 0 0 1 -1.26507,-1.26507 v -0.65571 a 1.7647603,1.7647603 0 0 0 -1.76476,-1.76476 H 643.5639 a 1.2501498,1.2501498 0 0 0 -1.25015,1.25015 z m 3,1.74985 v 3.65039 h -19.13281 v 3.1914 h -18.36719 l -0.21289,60.89453 -23.80859,13.125 10.4375,19.3711 18.04687,-9.58594 18.36914,-4.06641 h 19.81836 v -25.35937 h 14.76954 v 3.85352 h 18.62304 v 6.55078 h 21.14063 v -61.01368 h -19.18946 v -6.92578 h -19.16797 v -3.68554 z"
       inkscape:export-filename="./kb_case_wall.svg"
       inkscape:export-xdpi="96"
       inkscape:export-ydpi="96" />
    <path
       id="path2706"
       style="fill:none;stroke:#000000;stroke-width:0.264583px;stroke-linecap:butt;stroke-linejoin:miter;stroke-opacity:1"
       d="m 838.58337,218.43253 v 0.69841 a 1.701826,1.701826 0 0 1 -1.70183,1.70183 h -16.30218 a 1.128799,1.128799 0 0 0 -1.1288,1.1288 v 0.55183 a 1.5107661,1.5107661 0 0 1 -1.51077,1.51077 h -14.77406 a 2.0798392,2.0798392 0 0 0 -2.07982,2.07258 l -0.19627,56.23647 a 6.4768036,6.4768036 0 0 1 -3.35002,5.64947 l -19.70976,10.86506 a 2.0968159,2.0968159 0 0 0 -0.83366,2.83088 l 11.33125,21.03041 a 2.0050511,2.0050511 0 0 0 2.7056,0.81975 l 13.24957,-7.03672 a 44.235918,44.235918 0 0 1 11.18543,-4.12182 l 8.05741,-1.7841 a 34.831543,34.831543 0 0 1 7.53014,-0.8237 h 16.96499 a 1.7131747,1.7131747 0 0 0 1.71317,-1.71317 v -22.63254 a 1.0136615,1.0136615 0 0 1 1.01366,-1.01366 h 6.68377 a 1.0721124,1.0721124 0 0 1 1.07211,1.07211 v 1.69876 a 1.0826536,1.0826536 0 0 0 1.08265,1.08265 h 15.98935 a 1.5510358,1.5510358 0 0 1 1.55104,1.55104 v 3.28725 a 1.7124924,1.7124924 0 0 0 1.71249,1.71249 h 23.62192 a 1.8062165,1.8062165 0 0 0 1.80622,-1.80622 v -63.39984 a 1.8076174,1.8076174 0 0 0 -1.80762,-1.80762 h -15.92959 a 1.4522531,1.4522531 0 0 1 -1.45225,-1.45225 v -3.7183 a 1.7552304,1.7552304 0 0 0 -1.75523,-1.75523 h -16.14767 a 1.2650714,1.2650714 0 0 1 -1.26507,-1.26507 v -0.65571 a 1.7647603,1.7647603 0 0 0 -1.76476,-1.76476 h -24.31126 a 1.2501498,1.2501498 0 0 0 -1.25015,1.25015 z m 44.93576,51.00506 a 1.9327281,1.9327284 0 0 1 -1.93273,1.93273 1.9327281,1.9327284 0 0 1 -1.93273,-1.93273 1.9327281,1.9327284 0 0 1 1.93273,-1.93273 1.9327281,1.9327284 0 0 1 1.93273,1.93273 z m -0.1321,-25.32542 a 1.893399,1.8933992 0 0 1 -1.8934,1.8934 1.893399,1.8933992 0 0 1 -1.8934,-1.8934 1.893399,1.8933992 0 0 1 1.8934,-1.8934 1.893399,1.8933992 0 0 1 1.8934,1.8934 z m -57.19297,3.64084 a 1.892881,1.8928814 0 0 1 -1.89288,1.89288 1.892881,1.8928814 0 0 1 -1.89288,-1.89288 1.892881,1.8928814 0 0 1 1.89288,-1.89289 1.892881,1.8928814 0 0 1 1.89288,1.89289 z m 0.62237,38.43187 a 1.9130787,1.913079 0 0 1 -1.91307,1.91307 1.9130787,1.913079 0 0 1 -1.91308,-1.91307 1.9130787,1.913079 0 0 1 1.91308,-1.91308 1.9130787,1.913079 0 0 1 1.91307,1.91308 z m -20.46293,13.9093 a 1.9132767,1.913277 0 0 1 -1.91328,1.91327 1.9132767,1.913277 0 0 1 -1.91328,-1.91327 1.9132767,1.913277 0 0 1 1.91328,-1.91328 1.9132767,1.913277 0 0 1 1.91328,1.91328 z"
       inkscape:export-filename="./kb_case_bottom.svg"
       inkscape:export-xdpi="96"
       inkscape:export-ydpi="96" />
    <rect
       style="fill:#8e8e8e;fill-opacity:1;stroke:none;stroke-width:1.04675"
       id="rect385"
       width="19.940657"
       height="19.940657"
       x="-30.063902"
       y="74.4077"
       ry="0" />
    <path
       style="fill:none;stroke:#000000;stroke-width:0.276953px;stroke-linecap:butt;stroke-linejoin:miter;stroke-opacity:1"
       d="m -27.306898,76.409402 h 4.048969 v 0.882654 h 6.328619 l 8.27e-4,-0.882654 h 4.048236 v 15.937249 h -4.048979 v -0.882644 h -6.32862 v 0.882644 h -4.048969 z"
       id="path753" />
    <rect
       style="fill:#ffffff;fill-opacity:0;stroke:#000000;stroke-width:0.209351"
       id="rect1309"
       width="14.426653"
       height="15.937243"
       x="-27.306898"
       y="76.409409" />
    <path
       style="fill:none;stroke:#000000;stroke-width:0.264583px;stroke-linecap:butt;stroke-linejoin:miter;stroke-opacity:1"
       d="m 85.730424,122.61032 h 3.86812 v 0.84323 h 6.04595 l 7.9e-4,-0.84323 h 3.867424 v 15.2254 h -3.868134 v -0.84322 h -6.04595 v 0.84322 h -3.86812 z"
       id="path1669" />
    <path
       style="fill:none;stroke:#000000;stroke-width:0.264583px;stroke-linecap:butt;stroke-linejoin:miter;stroke-opacity:1"
       d="m 104.78043,119.02956 h 3.86812 v 0.84323 h 6.04595 l 7.9e-4,-0.84323 h 3.86742 v 15.2254 h -3.86813 v -0.84322 h -6.04595 v 0.84322 h -3.86812 z"
       id="path1671" />
    <path
       style="fill:none;stroke:#000000;stroke-width:0.264583px;stroke-linecap:butt;stroke-linejoin:miter;stroke-opacity:1"
       d="m 123.83043,115.63927 h 3.86812 v 0.84323 h 6.04595 l 7.9e-4,-0.84323 h 3.86742 v 15.2254 h -3.86813 v -0.84322 h -6.04595 v 0.84322 h -3.86812 z"
       id="path1673" />
    <path
       style="fill:none;stroke:#000000;stroke-width:0.264583px;stroke-linecap:butt;stroke-linejoin:miter;stroke-opacity:1"
       d="m 142.88043,119.02956 h 3.86812 v 0.84323 h 6.04595 l 7.9e-4,-0.84323 h 3.86742 v 15.2254 h -3.86813 v -0.84322 h -6.04595 v 0.84322 h -3.86812 z"
       id="path1675" />
    <path
       style="fill:none;stroke:#000000;stroke-width:0.264583px;stroke-linecap:butt;stroke-linejoin:miter;stroke-opacity:1"
       d="m 161.93043,125.63481 h 3.86812 v 0.84323 h 6.04595 l 7.9e-4,-0.84323 h 3.86742 v 15.2254 h -3.86813 v -0.84322 h -6.04595 v 0.84322 h -3.86812 z"
       id="path1677" />
    <path
       style="fill:none;stroke:#000000;stroke-width:0.264583px;stroke-linecap:butt;stroke-linejoin:miter;stroke-opacity:1"
       d="m 85.730424,103.56032 h 3.86812 v 0.84323 h 6.04595 l 7.9e-4,-0.84323 h 3.867424 v 15.2254 h -3.868134 v -0.84322 h -6.04595 v 0.84322 h -3.86812 z"
       id="path1679" />
    <path
       style="fill:none;stroke:#000000;stroke-width:0.264583px;stroke-linecap:butt;stroke-linejoin:miter;stroke-opacity:1"
       d="m 104.78043,99.979564 h 3.86812 v 0.843226 h 6.04595 l 7.9e-4,-0.843226 h 3.86742 v 15.225396 h -3.86813 v -0.84322 h -6.04595 v 0.84322 h -3.86812 z"
       id="path1681" />
    <path
       style="fill:none;stroke:#000000;stroke-width:0.264583px;stroke-linecap:butt;stroke-linejoin:miter;stroke-opacity:1"
       d="m 123.83043,96.589267 h 3.86812 v 0.84323 h 6.04595 l 7.9e-4,-0.84323 h 3.86742 v 15.225403 h -3.86813 v -0.84322 h -6.04595 v 0.84322 h -3.86812 z"
       id="path1683" />
    <path
       style="fill:none;stroke:#000000;stroke-width:0.264583px;stroke-linecap:butt;stroke-linejoin:miter;stroke-opacity:1"
       d="m 142.88043,99.979564 h 3.86812 v 0.843226 h 6.04595 l 7.9e-4,-0.843226 h 3.86742 v 15.225396 h -3.86813 v -0.84322 h -6.04595 v 0.84322 h -3.86812 z"
       id="path1685" />
    <path
       style="fill:none;stroke:#000000;stroke-width:0.264583px;stroke-linecap:butt;stroke-linejoin:miter;stroke-opacity:1"
       d="m 161.93043,106.58481 h 3.86812 v 0.84323 h 6.04595 l 7.9e-4,-0.84323 h 3.86742 v 15.2254 h -3.86813 v -0.84322 h -6.04595 v 0.84322 h -3.86812 z"
       id="path1687" />
    <path
       style="fill:none;stroke:#000000;stroke-width:0.264583px;stroke-linecap:butt;stroke-linejoin:miter;stroke-opacity:1"
       d="m 85.730424,84.510321 h 3.86812 v 0.84323 h 6.04595 l 7.9e-4,-0.84323 h 3.867424 v 15.2254 h -3.868134 v -0.84322 h -6.04595 v 0.84322 h -3.86812 z"
       id="path1689" />
    <path
       style="fill:none;stroke:#000000;stroke-width:0.264583px;stroke-linecap:butt;stroke-linejoin:miter;stroke-opacity:1"
       d="m 104.78043,80.929564 h 3.86812 v 0.84323 h 6.04595 l 7.9e-4,-0.84323 h 3.86742 v 15.2254 h -3.86813 v -0.84322 h -6.04595 v 0.84322 h -3.86812 z"
       id="path1691" />
    <path
       style="fill:none;stroke:#000000;stroke-width:0.264583px;stroke-linecap:butt;stroke-linejoin:miter;stroke-opacity:1"
       d="m 123.83043,77.539267 h 3.86812 v 0.84323 h 6.04595 l 7.9e-4,-0.84323 h 3.86742 v 15.2254 h -3.86813 v -0.84322 h -6.04595 v 0.84322 h -3.86812 z"
       id="path1693" />
    <path
       style="fill:none;stroke:#000000;stroke-width:0.264583px;stroke-linecap:butt;stroke-linejoin:miter;stroke-opacity:1"
       d="m 142.88043,80.929564 h 3.86812 v 0.84323 h 6.04595 l 7.9e-4,-0.84323 h 3.86742 v 15.2254 h -3.86813 v -0.84322 h -6.04595 v 0.84322 h -3.86812 z"
       id="path1695" />
    <path
       style="fill:none;stroke:#000000;stroke-width:0.264583px;stroke-linecap:butt;stroke-linejoin:miter;stroke-opacity:1"
       d="m 161.93043,87.534814 h 3.86812 v 0.84323 h 6.04595 l 7.9e-4,-0.84323 h 3.86742 v 15.225396 h -3.86813 v -0.84322 h -6.04595 v 0.84322 h -3.86812 z"
       id="path1697" />
    <path
       style="fill:none;stroke:#000000;stroke-width:0.264583px;stroke-linecap:butt;stroke-linejoin:miter;stroke-opacity:1"
       d="m 62.977614,155.7159 3.4026,-1.83975 0.40106,0.74175 5.31832,-2.87557 -0.40036,-0.74213 3.40198,-1.83942 7.2415,13.39304 -3.40261,1.83976 -0.40105,-0.74174 -5.31833,2.87557 0.40106,0.74174 -3.4026,1.83975 z"
       id="path1699" />
    <path
       style="fill:none;stroke:#000000;stroke-width:0.264583px;stroke-linecap:butt;stroke-linejoin:miter;stroke-opacity:1"
       d="m 107.17834,141.66032 h 3.86812 v 0.84323 h 6.04595 l 7.9e-4,-0.84323 h 3.86742 v 15.2254 h -3.86813 v -0.84322 h -6.04595 v 0.84322 h -3.86812 z"
       id="path1701" />
    <path
       style="fill:none;stroke:#000000;stroke-width:0.264583px;stroke-linecap:butt;stroke-linejoin:miter;stroke-opacity:1"
       d="m 83.989694,146.12156 3.73538,-1.00466 0.21901,0.81429 5.83846,-1.57029 -0.21824,-0.8145 3.734704,-1.00447 3.954442,14.7029 -3.735392,1.00466 -0.21901,-0.81429 -5.838464,1.5703 0.21901,0.81428 -3.73538,1.00465 z"
       id="path1703" />
    <text
       xml:space="preserve"
       style="font-size:4.23333px;line-height:1.25;font-family:'Maven Pro';-inkscape-font-specification:'Maven Pro';stroke-width:0.264583"
       x="118.85208"
       y="53.194843"
       id="text1771"><tspan
         sodipodi:role="line"
         id="tspan1769"
         style="stroke-width:0.264583"
         x="118.85208"
         y="53.194843">Key layout</tspan></text>
    <text
       xml:space="preserve"
       style="font-size:4.23333px;line-height:1.25;font-family:'Maven Pro';-inkscape-font-specification:'Maven Pro';stroke-width:0.264583"
       x="94.488052"
       y="59.981609"
       id="text1775"><tspan
         sodipodi:role="line"
         id="tspan1773"
         style="stroke-width:0.264583"
         x="94.488052"
         y="59.981609">Arrange your keys however you like</tspan></text>
    <rect
       style="fill:#ffffff;fill-opacity:0;stroke:#000000;stroke-width:0.209351"
       id="rect2396"
       width="14.426653"
       height="15.937243"
       x="-27.306898"
       y="117.26575" />
    <path
       style="fill:none;stroke:#000000;stroke-width:0.276953px;stroke-linecap:butt;stroke-linejoin:miter;stroke-opacity:1"
       d="m -27.306898,97.957817 h 4.048969 v 0.882654 h 6.328619 l 8.27e-4,-0.882654 h 4.048236 v 15.937243 h -4.048979 v -0.88264 h -6.32862 v 0.88264 h -4.048969 z"
       id="path2398" />
  </g>
</svg>
