<?xml version="1.0" encoding="UTF-8" standalone="no"?>
<!-- Created with Inkscape (http://www.inkscape.org/) -->

<svg
   width="135.55951mm"
   height="108.69276mm"
   viewBox="0 0 135.55951 108.69278"
   version="1.1"
   id="svg5"
   inkscape:version="1.2.2 (b0a8486541, 2022-12-01)"
   sodipodi:docname="template.svg"
   inkscape:export-filename="kb_plate_uncut.svg"
   inkscape:export-xdpi="96"
   inkscape:export-ydpi="96"
   xmlns:inkscape="http://www.inkscape.org/namespaces/inkscape"
   xmlns:sodipodi="http://sodipodi.sourceforge.net/DTD/sodipodi-0.dtd"
   xmlns="http://www.w3.org/2000/svg"
   xmlns:svg="http://www.w3.org/2000/svg">
  <sodipodi:namedview
     id="namedview7"
     pagecolor="#ffffff"
     bordercolor="#666666"
     borderopacity="1.0"
     inkscape:showpageshadow="false"
     inkscape:pageopacity="0"
     inkscape:pagecheckerboard="0"
     inkscape:deskcolor="#ffffff"
     inkscape:document-units="mm"
     showgrid="false"
     inkscape:zoom="0.51602726"
     inkscape:cx="2673.3084"
     inkscape:cy="781.93543"
     inkscape:window-width="1920"
     inkscape:window-height="1055"
     inkscape:window-x="1920"
     inkscape:window-y="1080"
     inkscape:window-maximized="0"
     inkscape:current-layer="layer1"
     showborder="false"
     borderlayer="false"
     inkscape:pageshadow="0" />
  <defs
     id="defs2" />
  <g
     inkscape:label="Layer 1"
     inkscape:groupmode="layer"
     id="layer1"
     transform="translate(-768.59447,-245.29713)">
    <path
       id="path13230"
       style="fill:none;stroke:#000000;stroke-width:0.264583px;stroke-linecap:butt;stroke-linejoin:miter;stroke-opacity:1"
       d="m 840.87323,245.42945 c -2.37366,0 -4.37284,1.39701 -5.34765,3.38867 H 821.8244 c -2.4568,0 -4.54852,1.47409 -5.47851,3.58203 h -12.59766 c -0.76041,0 -1.52022,0.0202 -2.28125,0.0625 -0.76375,0.0424 -1.52933,0.0644 -2.29297,0.0644 H 774.7287 c -3.32109,1e-5 -6.00195,2.67497 -6.00195,6 v 13.13672 c 0,8.48567 0.0738,17.09111 0.73828,25.68946 0.53812,6.96312 0.92119,12.46186 2.69922,21.32422 1.68721,8.40963 2.89545,16.97471 8.42187,27.15039 l 2.6543,4.88867 c 1.55516,2.8636 5.08275,3.9631 7.99023,2.48633 l 8.95704,-4.55078 c 4.99826,-2.53872 10.26797,-4.49501 15.71093,-5.83204 6.00622,-1.47538 12.1715,-2.2207 18.35743,-2.2207 h 9.01367 c 3.32251,0 6,-2.67749 6,-6 v -16.36523 c 0,-1.22665 -0.10388,-2.44919 -0.30664,-3.65625 h 5.38476 c 0.82916,1.99264 2.7883,3.39062 5.08594,3.39062 h 13.53906 v 0.60547 c 0,3.32252 2.67748,6 6,6 h 19.05078 c 3.32403,0 5.99805,-2.6799 5.99805,-6 v -57.15039 c 0,-3.32261 -2.67738,-6 -6,-6 h -13.04883 v -0.60547 c 0,-3.32262 -2.67736,-6 -6,-6 h -13.6289 c -0.95906,-2.05065 -3.03937,-3.39273 -5.41993,-3.34375 v -0.0449 z m -38.07774,84.36434 a 1.0771629,1.0771629 0 0 1 -1.07717,1.07717 1.0771629,1.0771629 0 0 1 -1.07716,-1.07717 1.0771629,1.0771629 0 0 1 1.07716,-1.07716 1.0771629,1.0771629 0 0 1 1.07717,1.07716 z m 20.10437,-33.29397 a 1.0771629,1.0771629 0 0 1 -1.07717,1.07716 1.0771629,1.0771629 0 0 1 -1.07716,-1.07716 1.0771629,1.0771629 0 0 1 1.07716,-1.07717 1.0771629,1.0771629 0 0 1 1.07717,1.07717 z m 57.15002,3.02447 a 1.0771629,1.0771629 0 0 1 -1.07716,1.07716 1.0771629,1.0771629 0 0 1 -1.07717,-1.07716 1.0771629,1.0771629 0 0 1 1.07717,-1.07716 1.0771629,1.0771629 0 0 1 1.07716,1.07716 z m 0,-25.65524 a 1.0771629,1.0771629 0 0 1 -1.07716,1.07716 1.0771629,1.0771629 0 0 1 -1.07717,-1.07716 1.0771629,1.0771629 0 0 1 1.07717,-1.07716 1.0771629,1.0771629 0 0 1 1.07716,1.07716 z m -57.15002,0 a 1.0771629,1.0771629 0 0 1 -1.07717,1.07716 1.0771629,1.0771629 0 0 1 -1.07716,-1.07716 1.0771629,1.0771629 0 0 1 1.07716,-1.07716 1.0771629,1.0771629 0 0 1 1.07717,1.07716 z" />
  </g>
</svg>
