<?xml version="1.0" encoding="UTF-8" standalone="no"?>
<!-- Created with Inkscape (http://www.inkscape.org/) -->

<svg
   width="130.81891mm"
   height="108.60852mm"
   viewBox="0 0 130.81891 108.60854"
   version="1.1"
   id="svg5"
   inkscape:version="1.2.2 (b0a8486541, 2022-12-01)"
   sodipodi:docname="template.svg"
   inkscape:export-filename="kb_plate_uncut.svg"
   inkscape:export-xdpi="96"
   inkscape:export-ydpi="96"
   xmlns:inkscape="http://www.inkscape.org/namespaces/inkscape"
   xmlns:sodipodi="http://sodipodi.sourceforge.net/DTD/sodipodi-0.dtd"
   xmlns="http://www.w3.org/2000/svg"
   xmlns:svg="http://www.w3.org/2000/svg">
  <sodipodi:namedview
     id="namedview7"
     pagecolor="#ffffff"
     bordercolor="#666666"
     borderopacity="1.0"
     inkscape:showpageshadow="false"
     inkscape:pageopacity="0"
     inkscape:pagecheckerboard="0"
     inkscape:deskcolor="#ffffff"
     inkscape:document-units="mm"
     showgrid="false"
     inkscape:zoom="0.36488638"
     inkscape:cx="2271.9401"
     inkscape:cy="875.61503"
     inkscape:window-width="1920"
     inkscape:window-height="1055"
     inkscape:window-x="1920"
     inkscape:window-y="1080"
     inkscape:window-maximized="0"
     inkscape:current-layer="layer1"
     showborder="false"
     borderlayer="false"
     inkscape:pageshadow="0" />
  <defs
     id="defs2" />
  <g
     inkscape:label="Layer 1"
     inkscape:groupmode="layer"
     id="layer1"
     transform="translate(-956.59703,-238.46392)">
    <path
       id="circle4207"
       style="fill:#ffffff;fill-opacity:0;stroke:#000000;stroke-width:0.212793"
       d="m 986.7684,322.85046 a 1.7676035,1.7676035 0 0 1 -1.76761,1.76761 1.7676035,1.7676035 0 0 1 -1.7676,-1.76761 1.7676035,1.7676035 0 0 1 1.7676,-1.7676 1.7676035,1.7676035 0 0 1 1.76761,1.7676 z m 20.1136,-15.1315 a 1.7676035,1.7676035 0 0 1 -1.7676,1.76761 1.7676035,1.7676035 0 0 1 -1.7676,-1.76761 1.7676035,1.7676035 0 0 1 1.7676,-1.7676 1.7676035,1.7676035 0 0 1 1.7676,1.7676 z m 57.1842,-14.92602 a 1.7676035,1.7676035 0 0 1 -1.7676,1.7676 1.7676035,1.7676035 0 0 1 -1.7676,-1.7676 1.7676035,1.7676035 0 0 1 1.7676,-1.76761 1.7676035,1.7676035 0 0 1 1.7676,1.76761 z m -0.077,-25.68854 a 1.7676035,1.7676035 0 0 1 -1.7676,1.7676 1.7676035,1.7676035 0 0 1 -1.7676,-1.7676 1.7676035,1.7676035 0 0 1 1.7676,-1.7676 1.7676035,1.7676035 0 0 1 1.7676,1.7676 z m -57.0604,-0.0333 a 1.7676035,1.7676035 0 0 1 -1.7676,1.7676 1.7676035,1.7676035 0 0 1 -1.7676,-1.7676 1.7676035,1.7676035 0 0 1 1.7676,-1.76761 1.7676035,1.7676035 0 0 1 1.7676,1.76761 z m 16.9941,-28.50078 c -2.3374,0 -4.3208,1.39615 -5.2265,3.38868 h -14.0665 c -2.367,-1e-5 -4.3424,1.49487 -5.12886,3.58203 h -13.44141 c -3.32259,-1e-5 -6,2.67742 -6,6 v 52.00586 c 0,1.67622 -0.67577,3.28347 -1.86914,4.45117 l -0.58008,0.56641 c -1.16834,1.1432 -2.48776,2.11849 -3.91992,2.89648 l -13.8457,7.51954 c -2.91905,1.58571 -3.99638,5.21661 -2.41016,8.13671 l 9.04883,16.65821 c 1.57961,2.90793 5.16326,4.02574 8.11719,2.52539 l 9.46093,-4.80664 c 4.60806,-2.34053 9.46761,-4.1417 14.48828,-5.375 6.43034,-1.57956 13.02914,-2.37891 19.65044,-2.37891 h 8.3574 c 3.3225,0 6,-2.67746 6,-6 v -19.04883 c 0,-0.33046 -0.091,-0.6487 -0.1445,-0.97265 h 5.2128 c 0.8152,1.98955 2.7591,3.39062 5.0469,3.39062 h 13.5879 v 0.13477 c 0,3.58408 2.8866,6.4707 6.4707,6.4707 h 18.5781 c 3.3226,0 6,-2.67748 6,-6 v -57.37891 c 0,-3.19553 -2.5759,-5.77148 -5.7714,-5.77149 h -13.2774 v -1.23632 c 0,-2.97123 -2.3979,-5.36915 -5.3691,-5.36914 h -14.0606 c -0.759,-1.97766 -2.6436,-3.38867 -4.8926,-3.38868 z" />
  </g>
</svg>
