<?xml version="1.0" encoding="UTF-8" standalone="no"?>
<!-- Created with Inkscape (http://www.inkscape.org/) -->

<svg
   width="135.55945mm"
   height="108.6927mm"
   viewBox="0 0 135.55945 108.69272"
   version="1.1"
   id="svg5"
   inkscape:version="1.2.2 (b0a8486541, 2022-12-01)"
   sodipodi:docname="template.svg"
   inkscape:export-filename="kb_plate_uncut.svg"
   inkscape:export-xdpi="96"
   inkscape:export-ydpi="96"
   xmlns:inkscape="http://www.inkscape.org/namespaces/inkscape"
   xmlns:sodipodi="http://sodipodi.sourceforge.net/DTD/sodipodi-0.dtd"
   xmlns="http://www.w3.org/2000/svg"
   xmlns:svg="http://www.w3.org/2000/svg">
  <sodipodi:namedview
     id="namedview7"
     pagecolor="#ffffff"
     bordercolor="#666666"
     borderopacity="1.0"
     inkscape:showpageshadow="false"
     inkscape:pageopacity="0"
     inkscape:pagecheckerboard="0"
     inkscape:deskcolor="#ffffff"
     inkscape:document-units="mm"
     showgrid="false"
     inkscape:zoom="0.51602726"
     inkscape:cx="2673.3084"
     inkscape:cy="781.93543"
     inkscape:window-width="1920"
     inkscape:window-height="1055"
     inkscape:window-x="1920"
     inkscape:window-y="1080"
     inkscape:window-maximized="0"
     inkscape:current-layer="layer1"
     showborder="false"
     borderlayer="false"
     inkscape:pageshadow="0" />
  <defs
     id="defs2" />
  <g
     inkscape:label="Layer 1"
     inkscape:groupmode="layer"
     id="layer1"
     transform="translate(-947.99614,-245.29713)">
    <path
       id="path13782"
       style="fill:none;stroke:#000000;stroke-width:0.264583px;stroke-linecap:butt;stroke-linejoin:miter;stroke-opacity:1"
       d="m 1020.2749,245.42941 c -2.3737,0 -4.3729,1.39701 -5.3477,3.38867 h -13.7011 c -2.45685,0 -4.54857,1.47409 -5.47856,3.58203 h -12.59766 c -0.76041,0 -1.52022,0.0202 -2.28125,0.0625 -0.76375,0.0424 -1.52933,0.0644 -2.29297,0.0644 h -24.44531 c -3.32109,1e-5 -6.00195,2.67497 -6.00195,6 v 13.13672 c 0,8.48567 0.0738,17.09111 0.73828,25.68946 0.53812,6.96312 0.92119,12.46186 2.69922,21.32422 1.68721,8.40963 2.89545,16.97471 8.42187,27.15039 l 2.6543,4.88867 c 1.55516,2.8636 5.08275,3.9631 7.99023,2.48633 l 8.95704,-4.55078 c 4.99826,-2.53872 10.26797,-4.49501 15.71093,-5.83204 6.00623,-1.47538 12.17153,-2.2207 18.35743,-2.2207 h 9.0137 c 3.3225,0 6,-2.67749 6,-6 V 318.2341 c 0,-1.22665 -0.1039,-2.44919 -0.3067,-3.65625 h 5.3848 c 0.8292,1.99264 2.7883,3.39062 5.0859,3.39062 h 13.5391 v 0.60547 c 0,3.32252 2.6775,6 6,6 h 19.0508 c 3.324,0 5.998,-2.6799 5.998,-6 v -57.15039 c 0,-3.32261 -2.6774,-6 -6,-6 h -13.0488 v -0.60547 c 0,-3.32262 -2.6774,-6 -6,-6 h -13.6289 c -0.9591,-2.05065 -3.0394,-3.39273 -5.4199,-3.34375 v -0.0449 z m -37.3873,84.36432 a 1.7676035,1.7676035 0 0 1 -1.7676,1.76761 1.7676035,1.7676035 0 0 1 -1.76761,-1.76761 1.7676035,1.7676035 0 0 1 1.76761,-1.7676 1.7676035,1.7676035 0 0 1 1.7676,1.7676 z m 20.1044,-33.29397 a 1.7676035,1.7676035 0 0 1 -1.7676,1.7676 1.7676035,1.7676035 0 0 1 -1.76758,-1.7676 1.7676035,1.7676035 0 0 1 1.76758,-1.76761 1.7676035,1.7676035 0 0 1 1.7676,1.76761 z m 57.15,3.0245 a 1.7676035,1.7676035 0 0 1 -1.7676,1.7676 1.7676035,1.7676035 0 0 1 -1.7676,-1.7676 1.7676035,1.7676035 0 0 1 1.7676,-1.7676 1.7676035,1.7676035 0 0 1 1.7676,1.7676 z m 0,-25.65524 a 1.7676035,1.7676035 0 0 1 -1.7676,1.7676 1.7676035,1.7676035 0 0 1 -1.7676,-1.7676 1.7676035,1.7676035 0 0 1 1.7676,-1.7676 1.7676035,1.7676035 0 0 1 1.7676,1.7676 z m -57.15,0 a 1.7676035,1.7676035 0 0 1 -1.7676,1.7676 1.7676035,1.7676035 0 0 1 -1.76758,-1.7676 1.7676035,1.7676035 0 0 1 1.76758,-1.7676 1.7676035,1.7676035 0 0 1 1.7676,1.7676 z" />
  </g>
</svg>
