<?xml version="1.0" encoding="UTF-8" standalone="no"?>
<!-- Created with Inkscape (http://www.inkscape.org/) -->

<svg
   width="130.87067mm"
   height="108.66015mm"
   viewBox="0 0 130.87067 108.66015"
   version="1.1"
   id="svg1122"
   inkscape:version="1.1.2 (0a00cf5339, 2022-02-04)"
   sodipodi:docname="kb_case_wall.svg"
   xmlns:inkscape="http://www.inkscape.org/namespaces/inkscape"
   xmlns:sodipodi="http://sodipodi.sourceforge.net/DTD/sodipodi-0.dtd"
   xmlns="http://www.w3.org/2000/svg"
   xmlns:svg="http://www.w3.org/2000/svg">
  <sodipodi:namedview
     id="namedview1124"
     pagecolor="#505050"
     bordercolor="#eeeeee"
     borderopacity="1"
     inkscape:pageshadow="0"
     inkscape:pageopacity="0"
     inkscape:pagecheckerboard="0"
     inkscape:document-units="mm"
     showgrid="false"
     fit-margin-top="0"
     fit-margin-left="0"
     fit-margin-right="0"
     fit-margin-bottom="0"
     inkscape:zoom="0.54431117"
     inkscape:cx="-169.93956"
     inkscape:cy="142.38179"
     inkscape:window-width="1616"
     inkscape:window-height="872"
     inkscape:window-x="0"
     inkscape:window-y="0"
     inkscape:window-maximized="1"
     inkscape:current-layer="layer1" />
  <defs
     id="defs1119" />
  <g
     inkscape:label="Layer 1"
     inkscape:groupmode="layer"
     id="layer1"
     transform="translate(-100.09434,-110.56353)">
    <path
       id="path45571"
       style="fill:none;stroke:#000000;stroke-width:0.264583px;stroke-linecap:butt;stroke-linejoin:miter;stroke-opacity:1"
       d="m 167.44599,110.69582 c -2.33743,0 -4.32078,1.39614 -5.22656,3.38867 h -14.06641 c -2.36704,0 -4.34244,1.49488 -5.1289,3.58204 h -13.44141 c -3.32259,-10e-6 -6,2.67742 -6,6 v 52.00585 c 0,1.67622 -0.67577,3.28347 -1.86914,4.45117 l -0.58008,0.56641 c -1.16834,1.1432 -2.48776,2.11849 -3.91992,2.89648 l -13.8457,7.51954 c -2.91905,1.58571 -3.99638,5.21661 -2.41016,8.13671 l 9.04883,16.65821 c 1.57961,2.90793 5.16326,4.02574 8.11719,2.52539 l 9.46093,-4.80664 c 4.60806,-2.34053 9.46761,-4.1417 14.48828,-5.375 6.43035,-1.57956 13.02915,-2.37891 19.65039,-2.37891 h 8.35743 c 3.32252,0 6,-2.67746 6,-6 v -19.04883 c 0,-0.33046 -0.0909,-0.6487 -0.14453,-0.97265 h 5.21289 c 0.81515,1.98955 2.75902,3.39062 5.04687,3.39062 h 13.58789 v 0.13477 c 0,3.58408 2.88661,6.4707 6.47071,6.4707 h 18.57812 c 3.32252,0 6,-2.67748 6,-6 v -57.3789 c 0,-3.19553 -2.57596,-5.77148 -5.77148,-5.77149 h -13.27735 v -1.23633 c 0,-2.97122 -2.39791,-5.36914 -5.36914,-5.36914 h -14.06055 c -0.75905,-1.97765 -2.6436,-3.38866 -4.89257,-3.38867 z m 0,3 c -1.53131,0 -2.76367,1.23237 -2.76367,2.76367 v 0.11524 c 0,0.27695 -0.23281,0.50976 -0.50977,0.50976 h -16.01953 c -1.39643,0 -2.51953,1.1231 -2.51953,2.51954 v 0.5957 c 0,0.25349 -0.21301,0.4668 -0.46484,0.4668 h -15.58594 c -1.66188,-10e-6 -3,1.33812 -3,3 v 52.00585 c 0,2.48248 -1.00027,4.86263 -2.77344,6.59766 l -0.57812,0.56445 c -1.36534,1.33596 -2.90832,2.47734 -4.58594,3.38867 l -13.8457,7.51953 c -1.46071,0.7935 -1.99844,2.60785 -1.20508,4.06836 l 9.04883,16.65821 c 0.80241,1.47717 2.62113,2.04506 4.12109,1.2832 l 9.46094,-4.80664 c 4.81312,-2.44468 9.88996,-4.32736 15.13281,-5.61524 6.66449,-1.63707 13.50276,-2.46484 20.36523,-2.46484 h 8.35743 c 1.66191,0 3,-1.33808 3,-3 v -19.04883 c 0,-0.59408 -0.1751,-1.17567 -0.50586,-1.66992 l -1.54102,-2.30273 h 12.17578 c 0.28488,0 0.52344,0.23857 0.52344,0.52343 v 0.4043 c 0,1.36516 1.09775,2.46289 2.46289,2.46289 h 15.36914 c 0.66833,0 1.21875,0.55043 1.21875,1.21875 v 1.91602 c 0,1.92181 1.54888,3.4707 3.47071,3.4707 h 18.57812 c 1.66192,0 3,-1.33808 3,-3 v -57.3789 c 0,-1.53562 -1.23587,-2.77149 -2.77148,-2.77149 h -15.47071 c -0.44017,0 -0.80664,-0.36646 -0.80664,-0.80664 v -3.42969 c 0,-1.31342 -1.05571,-2.36914 -2.36914,-2.36914 h -15.93555 c -0.40705,0 -0.74609,-0.33847 -0.74609,-0.74414 v -0.37304 c 0,-1.25921 -1.01227,-2.27149 -2.27148,-2.27149 z"
       inkscape:export-filename="/home/dan/git/split-keyboard-case-builder/src/kb_case_wall.svg"
       inkscape:export-xdpi="96"
       inkscape:export-ydpi="96" />
  </g>
</svg>
