<?xml version="1.0" encoding="UTF-8" standalone="no"?>
<!-- Created with Inkscape (http://www.inkscape.org/) -->

<svg
   width="127.78607mm"
   height="106.84505mm"
   viewBox="0 0 127.78607 106.84506"
   version="1.1"
   id="svg5"
   inkscape:version="1.2.2 (b0a8486541, 2022-12-01)"
   sodipodi:docname="kb_main.svg"
   inkscape:export-filename="kb_plate_uncut.svg"
   inkscape:export-xdpi="96"
   inkscape:export-ydpi="96"
   xmlns:inkscape="http://www.inkscape.org/namespaces/inkscape"
   xmlns:sodipodi="http://sodipodi.sourceforge.net/DTD/sodipodi-0.dtd"
   xmlns="http://www.w3.org/2000/svg"
   xmlns:svg="http://www.w3.org/2000/svg">
  <sodipodi:namedview
     id="namedview7"
     pagecolor="#ffffff"
     bordercolor="#666666"
     borderopacity="1.0"
     inkscape:showpageshadow="2"
     inkscape:pageopacity="0.0"
     inkscape:pagecheckerboard="0"
     inkscape:deskcolor="#d1d1d1"
     inkscape:document-units="mm"
     showgrid="false"
     inkscape:zoom="0.70710678"
     inkscape:cx="1914.8452"
     inkscape:cy="278.60007"
     inkscape:window-width="1599"
     inkscape:window-height="872"
     inkscape:window-x="1942"
     inkscape:window-y="99"
     inkscape:window-maximized="0"
     inkscape:current-layer="layer1"
     showborder="true" />
  <defs
     id="defs2" />
  <g
     inkscape:label="Layer 1"
     inkscape:groupmode="layer"
     id="layer1"
     transform="translate(-499.99197,-217.05009)">
    <path
       id="path2706"
       style="fill:none;stroke:#000000;stroke-width:0.264583px;stroke-linecap:butt;stroke-linejoin:miter;stroke-opacity:1"
       d="m 561.96218,218.43253 v 0.69841 a 1.701826,1.701826 135 0 1 -1.70183,1.70183 h -16.30218 a 1.128799,1.128799 135 0 0 -1.1288,1.1288 v 0.55183 a 1.5107661,1.5107661 135 0 1 -1.51077,1.51077 h -14.77406 a 2.0798392,2.0798392 135.09998 0 0 -2.07982,2.07258 l -0.19627,56.23647 a 6.4768036,6.4768036 120.66704 0 1 -3.35002,5.64947 l -19.70976,10.86506 a 2.0968159,2.0968159 106.4091 0 0 -0.83366,2.83088 l 11.33125,21.03041 a 2.0050511,2.0050511 16.85585 0 0 2.7056,0.81975 l 13.24957,-7.03672 a 44.235918,44.235918 159.77122 0 1 11.18543,-4.12182 l 8.05741,-1.7841 a 34.831543,34.831543 173.75741 0 1 7.53014,-0.8237 h 16.96499 a 1.7131747,1.7131747 135 0 0 1.71317,-1.71317 v -22.63254 a 1.0136615,1.0136615 135 0 1 1.01366,-1.01366 H 580.81 a 1.0721124,1.0721124 45 0 1 1.07211,1.07211 v 1.69876 a 1.0826536,1.0826536 45 0 0 1.08265,1.08265 h 15.98935 a 1.5510358,1.5510358 45 0 1 1.55104,1.55104 v 3.28725 a 1.7124924,1.7124924 45 0 0 1.71249,1.71249 h 23.62192 a 1.8062165,1.8062165 135 0 0 1.80622,-1.80622 v -63.39984 a 1.8076174,1.8076174 45 0 0 -1.80762,-1.80762 h -15.92959 a 1.4522531,1.4522531 45 0 1 -1.45225,-1.45225 v -3.7183 a 1.7552304,1.7552304 45 0 0 -1.75523,-1.75523 h -16.14767 a 1.2650714,1.2650714 45 0 1 -1.26507,-1.26507 v -0.65571 a 1.7647603,1.7647603 45 0 0 -1.76476,-1.76476 h -24.31126 a 1.2501498,1.2501498 135 0 0 -1.25015,1.25015 z m 44.93576,51.00506 a 1.9327281,1.9327284 0 0 1 -1.93273,1.93273 1.9327281,1.9327284 0 0 1 -1.93273,-1.93273 1.9327281,1.9327284 0 0 1 1.93273,-1.93273 1.9327281,1.9327284 0 0 1 1.93273,1.93273 z m -0.1321,-25.32542 a 1.893399,1.8933992 0 0 1 -1.8934,1.8934 1.893399,1.8933992 0 0 1 -1.8934,-1.8934 1.893399,1.8933992 0 0 1 1.8934,-1.8934 1.893399,1.8933992 0 0 1 1.8934,1.8934 z m -57.19297,3.64084 a 1.892881,1.8928814 0 0 1 -1.89288,1.89288 1.892881,1.8928814 0 0 1 -1.89288,-1.89288 1.892881,1.8928814 0 0 1 1.89288,-1.89289 1.892881,1.8928814 0 0 1 1.89288,1.89289 z m 0.62237,38.43187 a 1.9130787,1.913079 0 0 1 -1.91307,1.91307 1.9130787,1.913079 0 0 1 -1.91308,-1.91307 1.9130787,1.913079 0 0 1 1.91308,-1.91308 1.9130787,1.913079 0 0 1 1.91307,1.91308 z m -20.46293,13.9093 a 1.9132767,1.913277 0 0 1 -1.91328,1.91327 1.9132767,1.913277 0 0 1 -1.91328,-1.91327 1.9132767,1.913277 0 0 1 1.91328,-1.91328 1.9132767,1.913277 0 0 1 1.91328,1.91328 z" />
  </g>
</svg>
