<?xml version="1.0" encoding="UTF-8" standalone="no"?>
<!-- Created with Inkscape (http://www.inkscape.org/) -->

<svg
   width="130.73615mm"
   height="108.52557mm"
   viewBox="0 0 130.73615 108.52559"
   version="1.1"
   id="svg5"
   inkscape:version="1.2.2 (b0a8486541, 2022-12-01)"
   sodipodi:docname="template.svg"
   inkscape:export-filename="kb_plate_uncut.svg"
   inkscape:export-xdpi="96"
   inkscape:export-ydpi="96"
   xmlns:inkscape="http://www.inkscape.org/namespaces/inkscape"
   xmlns:sodipodi="http://sodipodi.sourceforge.net/DTD/sodipodi-0.dtd"
   xmlns="http://www.w3.org/2000/svg"
   xmlns:svg="http://www.w3.org/2000/svg">
  <sodipodi:namedview
     id="namedview7"
     pagecolor="#ffffff"
     bordercolor="#666666"
     borderopacity="1.0"
     inkscape:showpageshadow="false"
     inkscape:pageopacity="0"
     inkscape:pagecheckerboard="0"
     inkscape:deskcolor="#ffffff"
     inkscape:document-units="mm"
     showgrid="false"
     inkscape:zoom="0.36488638"
     inkscape:cx="2271.9401"
     inkscape:cy="875.61503"
     inkscape:window-width="1920"
     inkscape:window-height="1055"
     inkscape:window-x="1920"
     inkscape:window-y="1080"
     inkscape:window-maximized="0"
     inkscape:current-layer="layer1"
     showborder="false"
     borderlayer="false"
     inkscape:pageshadow="0" />
  <defs
     id="defs2" />
  <g
     inkscape:label="Layer 1"
     inkscape:groupmode="layer"
     id="layer1"
     transform="translate(-770.41759,-243.09737)">
    <path
       id="circle2739"
       style="fill:#ffffff;fill-opacity:0;stroke:#000000;stroke-width:0.129674"
       d="m 799.8575,327.44235 a 1.0771629,1.0771629 0 0 1 -1.07717,1.07717 1.0771629,1.0771629 0 0 1 -1.07716,-1.07717 1.0771629,1.0771629 0 0 1 1.07716,-1.07716 1.0771629,1.0771629 0 0 1 1.07717,1.07716 z m 20.11358,-15.13153 a 1.0771629,1.0771629 0 0 1 -1.07716,1.07716 1.0771629,1.0771629 0 0 1 -1.07716,-1.07716 1.0771629,1.0771629 0 0 1 1.07716,-1.07716 1.0771629,1.0771629 0 0 1 1.07716,1.07716 z m 57.18421,-14.92602 a 1.0771629,1.0771629 0 0 1 -1.07717,1.07716 1.0771629,1.0771629 0 0 1 -1.07716,-1.07716 1.0771629,1.0771629 0 0 1 1.07716,-1.07717 1.0771629,1.0771629 0 0 1 1.07717,1.07717 z m -0.0773,-25.68854 a 1.0771629,1.0771629 0 0 1 -1.07717,1.07716 1.0771629,1.0771629 0 0 1 -1.07716,-1.07716 1.0771629,1.0771629 0 0 1 1.07716,-1.07716 1.0771629,1.0771629 0 0 1 1.07717,1.07716 z m -57.06037,-0.0333 a 1.0771629,1.0771629 0 0 1 -1.07716,1.07717 1.0771629,1.0771629 0 0 1 -1.07716,-1.07717 1.0771629,1.0771629 0 0 1 1.07716,-1.07716 1.0771629,1.0771629 0 0 1 1.07716,1.07716 z m 17.68452,-28.50075 c -2.33743,-10e-6 -4.32078,1.39614 -5.22656,3.38867 H 818.4092 c -2.36704,-1e-5 -4.34244,1.49487 -5.1289,3.58203 h -13.44141 c -3.32259,0 -6,2.67743 -6,6 v 52.00586 c 0,1.67622 -0.67577,3.28347 -1.86914,4.45117 l -0.58008,0.56641 c -1.16834,1.1432 -2.48776,2.11849 -3.91992,2.89648 l -13.8457,7.51954 c -2.91905,1.58571 -3.99638,5.21661 -2.41016,8.13671 l 9.04883,16.65821 c 1.57961,2.90793 5.16326,4.02574 8.11719,2.52539 l 9.46093,-4.80664 c 4.60806,-2.34053 9.46761,-4.1417 14.48828,-5.375 6.43035,-1.57956 13.02915,-2.37891 19.65039,-2.37891 h 8.35743 c 3.32252,0 6,-2.67746 6,-6 V 313.2833 c 0,-0.33046 -0.0909,-0.6487 -0.14453,-0.97265 h 5.21289 c 0.81515,1.98955 2.75902,3.39062 5.04687,3.39062 h 13.58789 v 0.13477 c 0,3.58408 2.88661,6.4707 6.47071,6.4707 h 18.57812 c 3.32252,0 6,-2.67748 6,-6 v -57.37891 c 0,-3.19552 -2.57596,-5.77148 -5.77148,-5.77148 h -13.27735 v -1.23633 c 0,-2.97123 -2.39791,-5.36915 -5.36914,-5.36914 h -14.06055 c -0.75905,-1.97766 -2.6436,-3.38867 -4.89257,-3.38867 z"
       inkscape:export-filename="src/kb_case_wall.svg"
       inkscape:export-xdpi="96"
       inkscape:export-ydpi="96" />
  </g>
</svg>
