<?xml version="1.0" encoding="UTF-8" standalone="no"?>
<!-- Created with Inkscape (http://www.inkscape.org/) -->

<svg
   width="130.87073mm"
   height="108.66014mm"
   viewBox="0 0 130.87073 108.66016"
   version="1.1"
   id="svg5"
   inkscape:version="1.2.2 (b0a8486541, 2022-12-01)"
   sodipodi:docname="template.svg"
   inkscape:export-filename="kb_plate_uncut.svg"
   inkscape:export-xdpi="96"
   inkscape:export-ydpi="96"
   xmlns:inkscape="http://www.inkscape.org/namespaces/inkscape"
   xmlns:sodipodi="http://sodipodi.sourceforge.net/DTD/sodipodi-0.dtd"
   xmlns="http://www.w3.org/2000/svg"
   xmlns:svg="http://www.w3.org/2000/svg">
  <sodipodi:namedview
     id="namedview7"
     pagecolor="#ffffff"
     bordercolor="#666666"
     borderopacity="1.0"
     inkscape:showpageshadow="false"
     inkscape:pageopacity="0"
     inkscape:pagecheckerboard="0"
     inkscape:deskcolor="#ffffff"
     inkscape:document-units="mm"
     showgrid="false"
     inkscape:zoom="0.36488638"
     inkscape:cx="2271.9401"
     inkscape:cy="875.61503"
     inkscape:window-width="1920"
     inkscape:window-height="1055"
     inkscape:window-x="1920"
     inkscape:window-y="1080"
     inkscape:window-maximized="0"
     inkscape:current-layer="layer1"
     showborder="false"
     borderlayer="false"
     inkscape:pageshadow="0" />
  <defs
     id="defs2" />
  <g
     inkscape:label="Layer 1"
     inkscape:groupmode="layer"
     id="layer1"
     transform="translate(-566.88665,-242.57566)">
    <path
       id="path2234"
       style="fill:none;stroke:#000000;stroke-width:0.264583px;stroke-linecap:butt;stroke-linejoin:miter;stroke-opacity:1"
       d="m 634.23828,242.70795 c -2.33743,0 -4.32078,1.39614 -5.22656,3.38867 h -14.06641 c -2.36704,0 -4.34244,1.49488 -5.1289,3.58203 H 596.375 c -3.32259,0 -6,2.67743 -6,6 v 52.00586 c 0,1.67622 -0.67577,3.28347 -1.86914,4.45117 l -0.58008,0.56641 c -1.16834,1.1432 -2.48776,2.11849 -3.91992,2.89648 l -13.8457,7.51954 c -2.91905,1.58571 -3.99638,5.21661 -2.41016,8.13671 l 9.04883,16.65821 c 1.57961,2.90793 5.16326,4.02574 8.11719,2.52539 l 9.46093,-4.80664 c 4.60806,-2.34053 9.46761,-4.1417 14.48828,-5.375 6.43035,-1.57956 13.02915,-2.37891 19.65039,-2.37891 h 8.35743 c 3.32252,0 6,-2.67746 6,-6 v -19.04883 c 0,-0.33046 -0.0909,-0.6487 -0.14453,-0.97265 h 5.21289 c 0.81515,1.98955 2.75902,3.39062 5.04687,3.39062 h 13.58789 v 0.13477 c 0,3.58408 2.88661,6.4707 6.47071,6.4707 H 691.625 c 3.32252,0 6,-2.67748 6,-6 v -57.37891 c 0,-3.19552 -2.57596,-5.77148 -5.77148,-5.77148 h -13.27735 v -1.23633 c 0,-2.97123 -2.39791,-5.36915 -5.36914,-5.36914 h -14.06055 c -0.75905,-1.97766 -2.6436,-3.38867 -4.89257,-3.38867 z m 0,3 c -1.53131,0 -2.76367,1.23236 -2.76367,2.76367 v 0.11524 c 0,0.27695 -0.23281,0.50976 -0.50977,0.50976 h -16.01953 c -1.39643,0 -2.51953,1.1231 -2.51953,2.51953 v 0.59571 c 0,0.25349 -0.21301,0.46679 -0.46484,0.46679 H 596.375 c -1.66188,0 -3,1.33813 -3,3 v 52.00586 c 0,2.48248 -1.00027,4.86263 -2.77344,6.59766 l -0.57812,0.56445 c -1.36534,1.33596 -2.90832,2.47734 -4.58594,3.38867 l -13.8457,7.51953 c -1.46071,0.7935 -1.99844,2.60785 -1.20508,4.06836 l 9.04883,16.65821 c 0.80241,1.47717 2.62113,2.04506 4.12109,1.2832 l 9.46094,-4.80664 c 4.81312,-2.44468 9.88996,-4.32736 15.13281,-5.61524 6.66449,-1.63707 13.50276,-2.46484 20.36523,-2.46484 h 8.35743 c 1.66191,0 3,-1.33808 3,-3 v -19.04883 c 0,-0.59408 -0.1751,-1.17567 -0.50586,-1.66992 l -1.54102,-2.30273 h 12.17578 c 0.28488,0 0.52344,0.23857 0.52344,0.52343 v 0.4043 c 0,1.36516 1.09775,2.46289 2.46289,2.46289 h 15.36914 c 0.66833,0 1.21875,0.55043 1.21875,1.21875 v 1.91602 c 0,1.92181 1.54888,3.4707 3.47071,3.4707 H 691.625 c 1.66192,0 3,-1.33808 3,-3 v -57.37891 c 0,-1.53561 -1.23587,-2.77148 -2.77148,-2.77148 h -15.47071 c -0.44017,0 -0.80664,-0.36646 -0.80664,-0.80664 v -3.42969 c 0,-1.31343 -1.05571,-2.36914 -2.36914,-2.36914 h -15.93555 c -0.40705,0 -0.74609,-0.33847 -0.74609,-0.74414 v -0.37305 c 0,-1.2592 -1.01227,-2.27148 -2.27148,-2.27148 z"
       inkscape:export-filename="src/kb_case_wall.svg"
       inkscape:export-xdpi="96"
       inkscape:export-ydpi="96" />
  </g>
</svg>
