<?xml version="1.0" encoding="UTF-8" standalone="no"?>
<!-- Created with Inkscape (http://www.inkscape.org/) -->

<svg
   width="130.80769mm"
   height="108.59718mm"
   viewBox="0 0 130.80769 108.59718"
   version="1.1"
   id="svg39807"
   inkscape:version="1.1.2 (0a00cf5339, 2022-02-04)"
   sodipodi:docname="kb_case_bottom_outer.svg"
   xmlns:inkscape="http://www.inkscape.org/namespaces/inkscape"
   xmlns:sodipodi="http://sodipodi.sourceforge.net/DTD/sodipodi-0.dtd"
   xmlns="http://www.w3.org/2000/svg"
   xmlns:svg="http://www.w3.org/2000/svg">
  <sodipodi:namedview
     id="namedview39809"
     pagecolor="#505050"
     bordercolor="#eeeeee"
     borderopacity="1"
     inkscape:pageshadow="0"
     inkscape:pageopacity="0"
     inkscape:pagecheckerboard="0"
     inkscape:document-units="mm"
     showgrid="false"
     fit-margin-top="0"
     fit-margin-left="0"
     fit-margin-right="0"
     fit-margin-bottom="0"
     inkscape:zoom="0.54431117"
     inkscape:cx="140.54461"
     inkscape:cy="394.07606"
     inkscape:window-width="1616"
     inkscape:window-height="872"
     inkscape:window-x="0"
     inkscape:window-y="0"
     inkscape:window-maximized="1"
     inkscape:current-layer="layer1" />
  <defs
     id="defs39804" />
  <g
     inkscape:label="Layer 1"
     inkscape:groupmode="layer"
     id="layer1"
     transform="translate(-18.20336,-44.37735)">
    <path
       id="circle39519"
       style="fill:#ffffff;fill-opacity:0;stroke:#000000;stroke-width:0.20146"
       d="m 48.27508,128.7582 a 1.6734641,1.6734641 0 0 1 -1.67347,1.67346 1.6734641,1.6734641 0 0 1 -1.67346,-1.67346 1.6734641,1.6734641 0 0 1 1.67346,-1.67347 1.6734641,1.6734641 0 0 1 1.67347,1.67347 z m 20.11354,-15.1315 a 1.6734641,1.6734641 0 0 1 -1.6734,1.67346 1.6734641,1.6734641 0 0 1 -1.6735,-1.67346 1.6734641,1.6734641 0 0 1 1.6735,-1.67347 1.6734641,1.6734641 0 0 1 1.6734,1.67347 z m 57.1842,-14.92603 a 1.6734641,1.6734641 0 0 1 -1.6734,1.67347 1.6734641,1.6734641 0 0 1 -1.6735,-1.67347 1.6734641,1.6734641 0 0 1 1.6735,-1.67346 1.6734641,1.6734641 0 0 1 1.6734,1.67346 z m -0.077,-25.68853 a 1.6734641,1.6734641 0 0 1 -1.6735,1.67346 1.6734641,1.6734641 0 0 1 -1.6735,-1.67346 1.6734641,1.6734641 0 0 1 1.6735,-1.67347 1.6734641,1.6734641 0 0 1 1.6735,1.67347 z m -57.0604,-0.0333 a 1.6734641,1.6734641 0 0 1 -1.6735,1.67346 1.6734641,1.6734641 0 0 1 -1.6735,-1.67346 1.6734641,1.6734641 0 0 1 1.6735,-1.67346 1.6734641,1.6734641 0 0 1 1.6735,1.67346 z m 17.0882,-28.50076 c -2.3374,0 -4.3208,1.39614 -5.2265,3.38867 h -14.0665 c -2.367,0 -4.3424,1.49488 -5.12886,3.58203 H 47.66035 c -3.32259,0 -6,2.67743 -6,6 v 52.00586 c 0,1.67622 -0.67577,3.28347 -1.86914,4.45117 l -0.58008,0.56641 c -1.16834,1.1432 -2.48776,2.11849 -3.91992,2.89648 l -13.8457,7.51954 c -2.91905,1.58571 -3.99638,5.21661 -2.41016,8.13671 l 9.04883,16.65821 c 1.57961,2.90793 5.16326,4.02574 8.11719,2.52539 l 9.46093,-4.80664 c 4.60806,-2.34053 9.46761,-4.1417 14.48828,-5.375 6.43034,-1.57956 13.02914,-2.37891 19.65044,-2.37891 h 8.3574 c 3.3225,0 6,-2.67746 6,-6 v -19.04883 c 0,-0.33046 -0.091,-0.6487 -0.1445,-0.97265 h 5.2128 c 0.8152,1.98955 2.7591,3.39062 5.0469,3.39062 h 13.5879 v 0.13477 c 0,3.58408 2.8866,6.4707 6.4707,6.4707 h 18.5781 c 3.3226,0 6,-2.67748 6,-6 V 60.2437 c 0,-3.19552 -2.5759,-5.77148 -5.7714,-5.77148 h -13.2774 v -1.23633 c 0,-2.97123 -2.3979,-5.36915 -5.3691,-5.36914 h -14.0606 c -0.759,-1.97766 -2.6436,-3.38867 -4.8926,-3.38867 z" />
  </g>
</svg>
