<?xml version="1.0" encoding="UTF-8" standalone="no"?>
<!-- Created with Inkscape (http://www.inkscape.org/) -->

<svg
   width="135.55951mm"
   height="108.69275mm"
   viewBox="0 0 135.55951 108.69276"
   version="1.1"
   id="svg5"
   inkscape:version="1.2.2 (b0a8486541, 2022-12-01)"
   sodipodi:docname="template.svg"
   inkscape:export-filename="kb_plate_uncut.svg"
   inkscape:export-xdpi="96"
   inkscape:export-ydpi="96"
   xmlns:inkscape="http://www.inkscape.org/namespaces/inkscape"
   xmlns:sodipodi="http://sodipodi.sourceforge.net/DTD/sodipodi-0.dtd"
   xmlns="http://www.w3.org/2000/svg"
   xmlns:svg="http://www.w3.org/2000/svg">
  <sodipodi:namedview
     id="namedview7"
     pagecolor="#ffffff"
     bordercolor="#666666"
     borderopacity="1.0"
     inkscape:showpageshadow="false"
     inkscape:pageopacity="0"
     inkscape:pagecheckerboard="0"
     inkscape:deskcolor="#ffffff"
     inkscape:document-units="mm"
     showgrid="false"
     inkscape:zoom="0.51602726"
     inkscape:cx="2673.3084"
     inkscape:cy="781.93543"
     inkscape:window-width="1920"
     inkscape:window-height="1055"
     inkscape:window-x="1920"
     inkscape:window-y="1080"
     inkscape:window-maximized="0"
     inkscape:current-layer="layer1"
     showborder="false"
     borderlayer="false"
     inkscape:pageshadow="0" />
  <defs
     id="defs2" />
  <g
     inkscape:label="Layer 1"
     inkscape:groupmode="layer"
     id="layer1"
     transform="translate(-566.38531,-245.29717)">
    <path
       id="path12450"
       style="fill:none;stroke:#000000;stroke-width:0.264583px;stroke-linecap:butt;stroke-linejoin:miter;stroke-opacity:1"
       d="m 638.66406,245.42949 c -2.37366,0 -4.37284,1.39701 -5.34765,3.38868 h -13.70118 c -2.4568,-1e-5 -4.54852,1.47409 -5.47851,3.58203 h -12.59766 c -0.76041,0 -1.52022,0.0202 -2.28125,0.0625 -0.76375,0.0424 -1.52933,0.0644 -2.29297,0.0644 h -24.44531 c -3.32109,0 -6.00195,2.67497 -6.00195,6 v 13.13672 c 0,8.48567 0.0738,17.09111 0.73828,25.68946 0.53812,6.96312 0.92119,12.46186 2.69922,21.32422 1.68721,8.40963 2.89545,16.97471 8.42187,27.15039 l 2.6543,4.88867 c 1.55516,2.8636 5.08275,3.9631 7.99023,2.48633 l 8.95704,-4.55078 c 4.99826,-2.53872 10.26797,-4.49501 15.71093,-5.83204 6.00622,-1.47538 12.1715,-2.2207 18.35743,-2.2207 h 9.01367 c 3.32251,0 6,-2.67749 6,-6 v -16.36523 c 0,-1.22665 -0.10388,-2.44919 -0.30664,-3.65625 h 5.38476 c 0.82916,1.99264 2.7883,3.39062 5.08594,3.39062 h 13.53906 v 0.60547 c 0,3.32252 2.67748,6 6,6 h 19.05078 c 3.32403,0 5.99805,-2.6799 5.99805,-6 v -57.1504 c 0,-3.32261 -2.67738,-6 -6,-6 h -13.04883 v -0.60546 c 0,-3.32263 -2.67736,-6.00001 -6,-6 h -13.6289 c -0.95906,-2.05066 -3.03937,-3.39274 -5.41993,-3.34375 v -0.0449 z m 0,3 c -1.66304,0 -3.00195,1.33892 -3.00195,3.00196 0,0.20993 -0.17678,0.38672 -0.38672,0.38672 h -15.66016 c -1.66183,-1e-5 -3.00195,1.33695 -3.00195,3 0,0.31667 -0.26494,0.58203 -0.58008,0.58203 h -14.49414 c -0.70521,0 -1.41004,0.0194 -2.11523,0.0586 -0.81893,0.0455 -1.63966,0.0684 -2.45899,0.0684 h -24.44531 c -1.66185,0 -3.00195,1.33693 -3.00195,3 v 13.13671 c 0,8.47052 0.0733,16.98018 0.72851,25.45899 0.53927,6.97798 0.91802,12.33008 2.65039,20.96484 1.70986,8.52252 2.8534,16.61651 8.11719,26.3086 l 2.6543,4.88867 c 0.77786,1.43232 2.54114,1.98215 3.99414,1.24414 l 8.95703,-4.55078 c 5.20234,-2.64237 10.68935,-4.68043 16.35547,-6.07227 6.24087,-1.53302 12.64565,-2.30664 19.07227,-2.30664 h 9.01367 c 1.66193,0 3,-1.33807 3,-3 v -16.36523 c 0,-2.10754 -0.34936,-4.20366 -1.03516,-6.19727 l -0.002,-0.004 -0.008,-0.0234 c -0.0693,-0.20152 0.0962,-0.43164 0.31055,-0.43164 h 10.9961 c 0.21148,0 0.39062,0.17914 0.39062,0.39062 v 0.48828 c 0,1.39231 1.11941,2.51172 2.51172,2.51172 h 15.44141 c 0.6015,0 1.09765,0.49695 1.09765,1.09961 v 2.50586 c 0,1.66192 1.33808,3 3,3 h 19.05078 c 1.66192,0 2.99805,-1.33929 2.99805,-3 v -57.15033 c 0,-1.66184 -1.33815,-3 -3,-3 h -15.0957 c -0.52101,0 -0.95313,-0.43211 -0.95313,-0.95312 v -2.65234 c 0,-1.66184 -1.33816,-3.00001 -3,-3 h -15.40625 c -0.3505,0 -0.64453,-0.29355 -0.64453,-0.64258 v -0.0332 l -0.002,-0.0352 c -0.10786,-1.58913 -1.47389,-2.78373 -3.06446,-2.67578 l 0.0684,-0.002 z" />
  </g>
</svg>
