<?xml version="1.0" encoding="UTF-8" standalone="no"?>
<!-- Created with Inkscape (http://www.inkscape.org/) -->

<svg
   width="130.84357mm"
   height="108.63303mm"
   viewBox="0 0 130.84357 108.63304"
   version="1.1"
   id="svg1122"
   inkscape:version="1.1.2 (0a00cf5339, 2022-02-04)"
   sodipodi:docname="kb_case_bottom.svg"
   xmlns:inkscape="http://www.inkscape.org/namespaces/inkscape"
   xmlns:sodipodi="http://sodipodi.sourceforge.net/DTD/sodipodi-0.dtd"
   xmlns="http://www.w3.org/2000/svg"
   xmlns:svg="http://www.w3.org/2000/svg">
  <sodipodi:namedview
     id="namedview1124"
     pagecolor="#505050"
     bordercolor="#eeeeee"
     borderopacity="1"
     inkscape:pageshadow="0"
     inkscape:pageopacity="0"
     inkscape:pagecheckerboard="0"
     inkscape:document-units="mm"
     showgrid="false"
     fit-margin-top="0"
     fit-margin-left="0"
     fit-margin-right="0"
     fit-margin-bottom="0"
     inkscape:zoom="0.54431117"
     inkscape:cx="100.12655"
     inkscape:cy="267.31033"
     inkscape:window-width="1616"
     inkscape:window-height="872"
     inkscape:window-x="0"
     inkscape:window-y="0"
     inkscape:window-maximized="1"
     inkscape:current-layer="layer1" />
  <defs
     id="defs1119" />
  <g
     inkscape:label="Layer 1"
     inkscape:groupmode="layer"
     id="layer1"
     transform="translate(-28.8395,-77.634899)">
    <path
       id="circle45690"
       style="fill:#ffffff;fill-opacity:0;stroke:#000000;stroke-width:0.237402"
       d="m 59.22783,162.03373 a 1.9720235,1.9720235 0 0 1 -1.97203,1.97203 1.9720235,1.9720235 0 0 1 -1.97202,-1.97203 1.9720235,1.9720235 0 0 1 1.97202,-1.97202 1.9720235,1.9720235 0 0 1 1.97203,1.97202 z m 20.11358,-15.1315 a 1.9720235,1.9720235 0 0 1 -1.97202,1.97202 1.9720235,1.9720235 0 0 1 -1.97202,-1.97202 1.9720235,1.9720235 0 0 1 1.97202,-1.97202 1.9720235,1.9720235 0 0 1 1.97202,1.97202 z m 57.18421,-14.92602 a 1.9720235,1.9720235 0 0 1 -1.97203,1.97202 1.9720235,1.9720235 0 0 1 -1.97202,-1.97202 1.9720235,1.9720235 0 0 1 1.97202,-1.97203 1.9720235,1.9720235 0 0 1 1.97203,1.97203 z m -0.0773,-25.68854 a 1.9720235,1.9720235 0 0 1 -1.97203,1.97202 1.9720235,1.9720235 0 0 1 -1.97202,-1.97202 1.9720235,1.9720235 0 0 1 1.97202,-1.97203 1.9720235,1.9720235 0 0 1 1.97203,1.97203 z M 96.17761,77.7536 c -2.33743,0 -4.32078,1.39614 -5.22656,3.38867 H 76.88467 c -2.36704,0 -4.34244,1.49488 -5.1289,3.58203 H 58.31436 c -3.32259,0 -6,2.67743 -6,6 v 52.00586 c 0,1.67622 -0.67577,3.28347 -1.86914,4.45117 l -0.58008,0.56641 c -1.16834,1.1432 -2.48776,2.11849 -3.91992,2.89648 l -13.8457,7.51954 c -2.91905,1.58571 -3.99638,5.21661 -2.41016,8.13671 l 9.04883,16.65821 c 1.57961,2.90793 5.16326,4.02574 8.11719,2.52539 l 9.46093,-4.80664 c 4.60806,-2.34053 9.46761,-4.1417 14.48828,-5.375 6.43035,-1.57956 13.02915,-2.37891 19.65039,-2.37891 h 8.35743 c 3.32252,0 6,-2.67746 6,-6 v -19.04883 c 0,-0.33046 -0.0909,-0.6487 -0.14453,-0.97265 h 5.21289 c 0.81515,1.98955 2.75902,3.39062 5.04687,3.39062 h 13.58789 v 0.13477 c 0,3.58408 2.88661,6.4707 6.47071,6.4707 h 18.57812 c 3.32252,0 6,-2.67748 6,-6 v -57.3789 c 0,-3.19553 -2.57596,-5.77148 -5.77148,-5.77149 h -13.27735 v -1.23633 c 0,-2.97122 -2.39791,-5.36915 -5.36914,-5.36914 h -14.06055 c -0.75905,-1.97765 -2.6436,-3.38867 -4.89257,-3.38867 z m -16.78966,28.50077 a 1.9720235,1.9720235 0 0 1 -1.97202,1.97203 1.9720235,1.9720235 0 0 1 -1.97202,-1.97203 1.9720235,1.9720235 0 0 1 1.97202,-1.97202 1.9720235,1.9720235 0 0 1 1.97202,1.97202 z"
       inkscape:export-filename="/home/dan/git/split-keyboard-case-builder/src/kb_case_bottom.svg"
       inkscape:export-xdpi="96"
       inkscape:export-ydpi="96" />
  </g>
</svg>
