<?xml version="1.0" encoding="UTF-8" standalone="no"?>
<!-- Created with Inkscape (http://www.inkscape.org/) -->

<svg
   width="127.43371mm"
   height="100.56644mm"
   viewBox="0 0 127.43371 100.56645"
   version="1.1"
   id="svg5"
   xmlns="http://www.w3.org/2000/svg"
   xmlns:svg="http://www.w3.org/2000/svg">
  <defs
     id="defs2" />
  <g
     id="layer1"
     transform="translate(-392.61737,-248.29241)">
    <path
       id="path11409"
       style="stroke:#000000;stroke-width:0.138354"
       d="m 396.75806,263.41628 h 21.60164 v 10.72164 h -21.60164 z m 1.33756,17.79811 a 1.4148378,1.4148378 0 0 1 -1.41483,1.41483 1.4148378,1.4148378 0 0 1 -1.41484,-1.41483 1.4148378,1.4148378 0 0 1 1.41484,-1.41484 1.4148378,1.4148378 0 0 1 1.41483,1.41484 z m 21.75623,0 a 1.4148378,1.4148378 0 0 1 -1.41484,1.41483 1.4148378,1.4148378 0 0 1 -1.41484,-1.41483 1.4148378,1.4148378 0 0 1 1.41484,-1.41484 1.4148378,1.4148378 0 0 1 1.41484,1.41484 z m 0,-21.75623 a 1.4148378,1.4148378 0 0 1 -1.41484,1.41484 1.4148378,1.4148378 0 0 1 -1.41484,-1.41484 1.4148378,1.4148378 0 0 1 1.41484,-1.41484 1.4148378,1.4148378 0 0 1 1.41484,1.41484 z m -21.75623,0 a 1.4148378,1.4148378 0 0 1 -1.41483,1.41484 1.4148378,1.4148378 0 0 1 -1.41484,-1.41484 1.4148378,1.4148378 0 0 1 1.41484,-1.41484 1.4148378,1.4148378 0 0 1 1.41483,1.41484 z m 60.73547,-9.09127 c 0,0.7664 -0.62128,1.38768 -1.38768,1.38768 H 441.7832 c -1.10509,0 -2.00094,0.89585 -2.00094,2.00094 0,0.87322 -0.70788,1.58109 -1.58109,1.5811 h -14.49331 c -0.68725,-1e-5 -1.37436,0.0191 -2.06055,0.0572 v 0 c -0.83696,0.0465 -1.67504,0.0698 -2.51329,0.0698 h -24.44687 c -1.1049,0 -2.0006,0.8957 -2.0006,2.0006 v 13.13693 c 0,8.46552 0.0729,16.94288 0.72506,25.38176 0.53962,6.9825 0.91675,12.28496 2.63397,20.8442 1.71722,8.55924 2.83837,16.49786 8.01486,26.02919 l 2.65454,4.88773 c 0.51694,0.95184 1.69765,1.31921 2.66337,0.8287 l 8.95671,-4.54928 c 5.27033,-2.6769 10.83024,-4.74062 16.57078,-6.15074 6.31904,-1.55222 12.8022,-2.33683 19.30909,-2.33683 h 9.01503 c 1.10433,0 1.99956,-0.89523 1.99956,-1.99956 v -16.36662 c 0,-1.99723 -0.3316,-3.98059 -0.98128,-5.8692 l -0.009,-0.0274 c -0.29637,-0.86155 0.34372,-1.75866 1.25482,-1.75866 h 10.99709 c 0.76832,0 1.39116,0.62284 1.39116,1.39116 v 0.48805 c 0,0.83473 0.67668,1.51141 1.51141,1.51141 h 15.44042 c 1.15922,0 2.09895,0.93973 2.09895,2.09895 v 2.50684 c 0,1.10439 0.89529,1.99968 1.99968,1.99968 h 19.04947 c 1.10439,0 1.99968,-0.89529 1.99968,-1.99968 v -57.15003 c 0,-1.10496 -0.89575,-2.00072 -2.00072,-2.00072 h -15.09527 c -1.07852,0 -1.95284,-0.87431 -1.95284,-1.95284 v -2.65169 c 0,-1.10509 -0.89585,-2.00094 -2.00094,-2.00094 H 483.5254 c -0.90745,1e-5 -1.64309,-0.73563 -1.64309,-1.64308 -0.0702,-1.03426 -0.96553,-1.81578 -1.99979,-1.74559 h -19.05 c -1.10512,0 -2.00099,0.89587 -2.00099,2.00099 z m -36.07625,78.36333 a 1.0771629,1.0771629 0 0 1 -1.07717,1.07717 1.0771629,1.0771629 0 0 1 -1.07716,-1.07717 1.0771629,1.0771629 0 0 1 1.07716,-1.07716 1.0771629,1.0771629 0 0 1 1.07717,1.07716 z m 20.1044,-33.29397 a 1.0771629,1.0771629 0 0 1 -1.07717,1.07716 1.0771629,1.0771629 0 0 1 -1.07716,-1.07716 1.0771629,1.0771629 0 0 1 1.07716,-1.07716 1.0771629,1.0771629 0 0 1 1.07717,1.07716 z m 57.14999,3.0245 a 1.0771629,1.0771629 0 0 1 -1.07716,1.07717 1.0771629,1.0771629 0 0 1 -1.07716,-1.07717 1.0771629,1.0771629 0 0 1 1.07716,-1.07716 1.0771629,1.0771629 0 0 1 1.07716,1.07716 z m 0,-25.65524 a 1.0771629,1.0771629 0 0 1 -1.07716,1.07716 1.0771629,1.0771629 0 0 1 -1.07716,-1.07716 1.0771629,1.0771629 0 0 1 1.07716,-1.07716 1.0771629,1.0771629 0 0 1 1.07716,1.07716 z m -97.85574,57.50853 12.67704,-6.88629 7.60734,14.00443 -12.67704,6.88629 z m 21.05375,-9.69188 13.92225,-3.78145 4.17739,15.38002 -13.92224,3.78145 z m 23.28443,-4.57953 h 14.42665 v 15.93725 h -14.42665 z m 54.75207,-16.02551 h 14.42666 v 15.93724 h -14.42666 z m 0,-19.04999 h 14.42666 v 15.93725 h -14.42666 z m -19.04998,12.44477 h 14.42665 v 15.93724 h -14.42665 z m 0,-19.04999 h 14.42665 v 15.93724 h -14.42665 z m -19.05002,15.6597 h 14.42665 v 15.93724 h -14.42665 z m 0,-19.05002 h 14.42665 v 15.93724 h -14.42665 z m -19.04999,22.44031 h 14.42665 v 15.93724 h -14.42665 z m 0,-19.04999 h 14.42665 v 15.93724 h -14.42665 z m -19.04999,22.63074 h 14.42666 v 15.93724 h -14.42666 z m 0,-19.04999 h 14.42666 v 15.93724 h -14.42666 z m 76.19998,-16.02552 h 14.42666 v 15.93725 h -14.42666 z m -19.04998,-6.60525 h 14.42665 v 15.93724 h -14.42665 z m -19.05002,-3.39029 h 14.42665 v 15.93724 h -14.42665 z m -19.04999,3.39029 h 14.42665 v 15.93724 h -14.42665 z m -19.04999,3.58075 h 14.42666 v 15.93724 h -14.42666 z m 17.81548,13.91287 a 1.0771629,1.0771629 0 0 1 -1.07717,1.07716 1.0771629,1.0771629 0 0 1 -1.07716,-1.07716 1.0771629,1.0771629 0 0 1 1.07716,-1.07716 1.0771629,1.0771629 0 0 1 1.07717,1.07716 z" />
  </g>
</svg>
