<?xml version="1.0" encoding="UTF-8" standalone="no"?>
<!-- Created with Inkscape (http://www.inkscape.org/) -->

<svg
   width="118.98889mm"
   height="98.016785mm"
   viewBox="0 0 118.98889 98.016798"
   version="1.1"
   id="svg5"
   inkscape:version="1.2.2 (b0a8486541, 2022-12-01)"
   sodipodi:docname="kb_plate_main.svg"
   inkscape:export-filename="kb_plate_uncut.svg"
   inkscape:export-xdpi="96"
   inkscape:export-ydpi="96"
   xmlns:inkscape="http://www.inkscape.org/namespaces/inkscape"
   xmlns:sodipodi="http://sodipodi.sourceforge.net/DTD/sodipodi-0.dtd"
   xmlns="http://www.w3.org/2000/svg"
   xmlns:svg="http://www.w3.org/2000/svg">
  <sodipodi:namedview
     id="namedview7"
     pagecolor="#ffffff"
     bordercolor="#666666"
     borderopacity="1.0"
     inkscape:showpageshadow="2"
     inkscape:pageopacity="0.0"
     inkscape:pagecheckerboard="0"
     inkscape:deskcolor="#d1d1d1"
     inkscape:document-units="mm"
     showgrid="false"
     inkscape:zoom="0.70710678"
     inkscape:cx="947.52309"
     inkscape:cy="710.64231"
     inkscape:window-width="1920"
     inkscape:window-height="1055"
     inkscape:window-x="1920"
     inkscape:window-y="1080"
     inkscape:window-maximized="0"
     inkscape:current-layer="layer1"
     showborder="true" />
  <defs
     id="defs2" />
  <g
     inkscape:label="Layer 1"
     inkscape:groupmode="layer"
     id="layer1"
     transform="translate(-184.95901,-226.44429)">
    <path
       id="ellipse1540"
       style="fill:#ffffff;fill-opacity:0;stroke:#000000;stroke-width:0.11355"
       d="m 285.76308,275.13013 a 0.94322491,0.94322509 0 0 1 -0.94323,0.94322 0.94322491,0.94322509 0 0 1 -0.94322,-0.94322 0.94322491,0.94322509 0 0 1 0.94322,-0.94323 0.94322491,0.94322509 0 0 1 0.94323,0.94323 z m -0.0928,-25.32543 a 0.94322491,0.94322509 0 0 1 -0.94323,0.94323 0.94322491,0.94322509 0 0 1 -0.94322,-0.94323 0.94322491,0.94322509 0 0 1 0.94322,-0.94322 0.94322491,0.94322509 0 0 1 0.94323,0.94322 z m -57.19246,3.64084 a 0.94322491,0.94322509 0 0 1 -0.94323,0.94323 0.94322491,0.94322509 0 0 1 -0.94322,-0.94323 0.94322491,0.94322509 0 0 1 0.94322,-0.94322 0.94322491,0.94322509 0 0 1 0.94323,0.94322 z m 0.60219,38.43187 a 0.94322491,0.94322509 0 0 1 -0.94323,0.94323 0.94322491,0.94322509 0 0 1 -0.94322,-0.94323 0.94322491,0.94322509 0 0 1 0.94322,-0.94322 0.94322491,0.94322509 0 0 1 0.94323,0.94322 z m -20.46314,13.9093 a 0.94322491,0.94322509 0 0 1 -0.94322,0.94323 0.94322491,0.94322509 0 0 1 -0.94323,-0.94323 0.94322491,0.94322509 0 0 1 0.94323,-0.94322 0.94322491,0.94322509 0 0 1 0.94322,0.94322 z m 21.6467,-54.12318 h 13.78228 v 15.2254 H 230.2636 Z m -19.04999,-15.43695 h 13.78228 v 15.2254 h -13.78228 z m -2e-5,19.0177 h 13.78228 v 15.2254 h -13.78228 z m 19.05001,-22.56616 h 13.78228 v 15.2254 H 230.2636 Z m 19.04998,15.59512 h 13.78228 v 15.2254 h -13.78228 z m 0,-19.05 h 13.78228 v 15.2254 h -13.78228 z m 19.05001,22.44029 h 13.78228 v 15.2254 h -13.78228 z m 0,-19.05 h 13.78228 v 15.2254 h -13.78228 z m 19.04998,6.60525 h 13.78228 v 15.2254 h -13.78228 z m 0,19.04999 h 13.78228 v 15.2254 h -13.78228 z m 0,19.05002 h 13.78228 v 15.2254 h -13.78228 z m -19.04998,-6.60526 h 13.78228 v 15.2254 h -13.78228 z m -19.05001,-3.39029 h 13.78228 v 15.2254 h -13.78228 z m -19.04998,3.39029 h 13.78228 v 15.2254 H 230.2636 Z m -19.05001,3.58075 h 13.78228 v 15.2254 h -13.78228 z m 21.44791,19.08231 h 13.78228 v 15.2254 H 232.6615 Z m -47.62581,13.38496 23.45761,-12.93311 0.21019,-60.48613 h 18.36994 v -3.18963 h 19.13352 v -3.65162 h 19.32721 v 3.68627 h 19.16801 v 6.92555 h 19.18898 v 59.01307 h -19.14027 v -6.55112 H 266.1265 v -3.85343 h -16.76929 v 25.35954 h -18.92985 l -18.60203,4.1206 -17.29368,9.18292 z m 24.43716,-8.92373 13.30931,-3.57963 3.95444,14.7029 -13.30923,3.5796 z m -21.01208,9.59434 c 4.09149,-2.21222 8.53038,-4.6123 12.1236,-6.55512 l 7.2415,13.39304 -12.12353,6.55508 z" />
  </g>
</svg>
