<?xml version="1.0" encoding="UTF-8" standalone="no"?>
<!-- Created with Inkscape (http://www.inkscape.org/) -->

<svg
   width="127.46569mm"
   height="100.59836mm"
   viewBox="0 0 127.46569 100.59836"
   version="1.1"
   id="svg3582"
   inkscape:version="1.1.2 (0a00cf5339, 2022-02-04)"
   sodipodi:docname="kb_plate_locking.svg"
   xmlns:inkscape="http://www.inkscape.org/namespaces/inkscape"
   xmlns:sodipodi="http://sodipodi.sourceforge.net/DTD/sodipodi-0.dtd"
   xmlns="http://www.w3.org/2000/svg"
   xmlns:svg="http://www.w3.org/2000/svg">
  <sodipodi:namedview
     id="namedview3584"
     pagecolor="#505050"
     bordercolor="#eeeeee"
     borderopacity="1"
     inkscape:pageshadow="0"
     inkscape:pageopacity="0"
     inkscape:pagecheckerboard="0"
     inkscape:document-units="mm"
     showgrid="false"
     fit-margin-top="0"
     fit-margin-left="0"
     fit-margin-right="0"
     fit-margin-bottom="0"
     inkscape:zoom="0.54431117"
     inkscape:cx="2.7557766"
     inkscape:cy="405.09917"
     inkscape:window-width="1616"
     inkscape:window-height="872"
     inkscape:window-x="0"
     inkscape:window-y="0"
     inkscape:window-maximized="1"
     inkscape:current-layer="layer1" />
  <defs
     id="defs3579" />
  <g
     inkscape:label="Layer 1"
     inkscape:groupmode="layer"
     id="layer1"
     transform="translate(-54.386628,-41.085435)">
    <path
       id="circle3280"
       style="fill:#ffffff;fill-opacity:0;stroke:#000000;stroke-width:0.170324"
       d="m 59.88082,74.02342 a 1.4148378,1.4148378 0 0 1 -1.41484,1.41483 1.4148378,1.4148378 0 0 1 -1.41484,-1.41483 1.4148378,1.4148378 0 0 1 1.41484,-1.41484 1.4148378,1.4148378 0 0 1 1.41484,1.41484 z m 21.75625,0 a 1.4148378,1.4148378 0 0 1 -1.41483,1.41483 1.4148378,1.4148378 0 0 1 -1.41484,-1.41483 1.4148378,1.4148378 0 0 1 1.41484,-1.41484 1.4148378,1.4148378 0 0 1 1.41483,1.41484 z m 0,-21.75626 a 1.4148378,1.4148378 0 0 1 -1.41483,1.41484 1.4148378,1.4148378 0 0 1 -1.41484,-1.41484 1.4148378,1.4148378 0 0 1 1.41484,-1.41484 1.4148378,1.4148378 0 0 1 1.41483,1.41484 z m -21.75625,0 a 1.4148378,1.4148378 0 0 1 -1.41484,1.41484 1.4148378,1.4148378 0 0 1 -1.41484,-1.41484 1.4148378,1.4148378 0 0 1 1.41484,-1.41484 1.4148378,1.4148378 0 0 1 1.41484,1.41484 z M 58.5433,56.2253 H 80.14494 V 66.94694 H 58.5433 Z m 62.07303,-13.04939 c 0,0.76639 -0.62128,1.38768 -1.38768,1.38768 h -15.66021 c -1.10509,0 -2.00094,0.89585 -2.00094,2.00094 0,0.87321 -0.70788,1.58109 -1.58109,1.58109 H 85.4931 c -0.68725,0 -1.37436,0.0191 -2.06055,0.0572 v 0 c -0.83696,0.0465 -1.67504,0.0698 -2.51329,0.0698 H 56.47239 c -1.1049,0 -2.0006,0.8957 -2.0006,2.0006 v 13.13694 c 0,8.46552 0.0729,16.94288 0.72506,25.38176 0.53962,6.9825 0.91675,12.28496 2.63397,20.8442 1.71722,8.55924 2.83837,16.49786 8.01486,26.02919 l 2.65454,4.88773 c 0.51694,0.95184 1.69765,1.31921 2.66337,0.8287 l 8.95671,-4.54928 c 5.27033,-2.6769 10.83024,-4.74062 16.57078,-6.15074 6.31904,-1.55222 12.8022,-2.33683 19.30909,-2.33683 h 9.01503 c 1.10433,0 1.99956,-0.89523 1.99956,-1.99956 v -16.36662 c 0,-1.99723 -0.3316,-3.98059 -0.98128,-5.8692 l -0.009,-0.0274 c -0.29637,-0.86155 0.34372,-1.75866 1.25482,-1.75866 h 10.99709 c 0.76832,0 1.39116,0.62284 1.39116,1.39116 v 0.48805 c 0,0.83473 0.67668,1.51141 1.51141,1.51141 h 15.44042 c 1.15922,0 2.09895,0.93973 2.09895,2.09895 v 2.50684 c 0,1.10439 0.89529,1.99968 1.99968,1.99968 h 19.04947 c 1.10439,0 1.99968,-0.89529 1.99968,-1.99968 V 53.16983 c 0,-1.10497 -0.89575,-2.00072 -2.00072,-2.00072 h -15.09527 c -1.07852,0 -1.95284,-0.87432 -1.95284,-1.95284 v -2.65169 c 0,-1.10509 -0.89585,-2.00094 -2.00094,-2.00094 h -15.40675 c -0.90745,0 -1.64309,-0.73563 -1.64309,-1.64309 -0.0702,-1.03425 -0.96553,-1.81578 -1.99979,-1.74558 h -19.05 c -1.10512,0 -2.00099,0.89587 -2.00099,2.00099 z m -15.28141,45.06937 a 1.7676035,1.7676035 0 0 1 -1.76761,1.7676 1.7676035,1.7676035 0 0 1 -1.7676,-1.7676 1.7676035,1.7676035 0 0 1 1.7676,-1.7676 1.7676035,1.7676035 0 0 1 1.76761,1.7676 z m 57.14999,-22.63074 a 1.7676035,1.7676035 0 0 1 -1.7676,1.76761 1.7676035,1.7676035 0 0 1 -1.76761,-1.76761 1.7676035,1.7676035 0 0 1 1.76761,-1.7676 1.7676035,1.7676035 0 0 1 1.7676,1.7676 z m 0,25.65521 a 1.7676035,1.7676035 0 0 1 -1.7676,1.76761 1.7676035,1.7676035 0 0 1 -1.76761,-1.76761 1.7676035,1.7676035 0 0 1 1.76761,-1.7676 1.7676035,1.7676035 0 0 1 1.7676,1.7676 z m -77.25439,30.26951 a 1.7676035,1.7676035 0 0 1 -1.76761,1.7676 1.7676035,1.7676035 0 0 1 -1.7676,-1.7676 1.7676035,1.7676035 0 0 1 1.7676,-1.76761 1.7676035,1.7676035 0 0 1 1.76761,1.76761 z m 20.1044,-55.92472 a 1.7676035,1.7676035 0 0 1 -1.76761,1.76761 1.7676035,1.7676035 0 0 1 -1.7676,-1.76761 1.7676035,1.7676035 0 0 1 1.7676,-1.7676 1.7676035,1.7676035 0 0 1 1.76761,1.7676 z m -41.3962,57.50849 3.55793,-1.93269 0.42131,0.7756 5.56111,-3.02084 -0.42059,-0.77601 3.55728,-1.93234 7.60734,14.00443 -3.55793,1.93271 -0.42131,-0.7756 -5.56111,3.02084 0.42131,0.7756 -3.55792,1.9327 z m 21.05377,-9.69187 3.90741,-1.0613 0.23135,0.85179 6.10735,-1.65883 -0.23056,-0.85201 3.9067,-1.0611 4.1774,15.38003 -3.90741,1.0613 -0.23136,-0.85179 -6.10735,1.65883 0.23136,0.85178 -3.90741,1.0613 z m 23.28441,-4.57951 h 4.04897 v 0.88266 h 6.32862 l 8.3e-4,-0.88266 h 4.04823 v 15.93725 h -4.04898 v -0.88264 h -6.32862 v 0.88264 h -4.04896 z m 54.75209,-16.02551 h 4.04897 v 0.88266 h 6.32862 l 8.3e-4,-0.88266 h 4.04823 v 15.93725 h -4.04898 v -0.88264 h -6.32862 v 0.88264 h -4.04897 z m 0,-19.05 h 4.04897 v 0.88266 h 6.32862 l 8.3e-4,-0.88266 h 4.04823 v 15.93725 h -4.04898 v -0.88264 h -6.32862 v 0.88264 h -4.04897 z m -19.05,12.44475 h 4.04897 v 0.88266 h 6.32862 l 8.3e-4,-0.88266 h 4.04823 v 15.93725 h -4.04898 v -0.88264 h -6.32862 v 0.88264 h -4.04896 z m 0,-19.04999 h 4.04897 v 0.88266 h 6.32862 l 8.3e-4,-0.88266 h 4.04823 v 15.93725 h -4.04898 v -0.88264 h -6.32862 v 0.88264 h -4.04896 z m -19.05,15.6597 h 4.04897 v 0.88266 h 6.32862 l 8.3e-4,-0.88266 h 4.04823 v 15.93725 h -4.04898 v -0.88264 h -6.32862 v 0.88264 h -4.04897 z m 0,-19.05 h 4.04897 v 0.88266 h 6.32862 l 8.3e-4,-0.88266 h 4.04823 v 15.93725 h -4.04898 v -0.88264 h -6.32862 v 0.88264 h -4.04897 z m -19.05,22.44029 h 4.04897 v 0.88266 h 6.32862 l 8.3e-4,-0.88266 h 4.04823 v 15.93725 h -4.04898 v -0.88264 h -6.32862 v 0.88264 h -4.04897 z m 0,-19.04999 h 4.04897 v 0.88266 h 6.32862 l 8.3e-4,-0.88266 h 4.04823 v 15.93725 h -4.04898 v -0.88264 h -6.32862 v 0.88264 h -4.04897 z m -19.05,22.63075 h 4.04897 v 0.88266 h 6.32862 l 8.3e-4,-0.88266 h 4.04823 v 15.93725 h -4.04898 v -0.88264 h -6.32862 v 0.88264 h -4.04896 z m 0,-19.05 h 4.04897 v 0.88266 h 6.32862 l 8.3e-4,-0.88266 h 4.04823 V 86.6889 h -4.04898 v -0.88264 h -6.32862 v 0.88264 h -4.04896 z m 76.2,-16.0255 h 4.04897 v 0.88266 h 6.32862 l 8.3e-4,-0.88266 h 4.04823 V 70.6634 h -4.04898 v -0.88264 h -6.32862 v 0.88264 h -4.04897 z m -19.05,-6.60525 h 4.04897 v 0.88266 h 6.32862 l 8.3e-4,-0.88266 h 4.04823 v 15.93725 h -4.04898 v -0.88264 h -6.32862 v 0.88264 h -4.04896 z m -19.05,-3.3903 h 4.04897 v 0.88266 h 6.32862 l 8.3e-4,-0.88266 h 4.04823 v 15.93725 h -4.04898 v -0.88264 h -6.32862 v 0.88264 h -4.04897 z m -19.05,3.3903 h 4.04897 v 0.88266 h 6.32862 l 8.3e-4,-0.88266 h 4.04823 v 15.93725 h -4.04898 v -0.88264 h -6.32862 v 0.88264 h -4.04897 z m -19.05,3.58076 h 4.04897 v 0.88266 h 6.32862 l 8.3e-4,-0.88266 h 4.04823 v 15.93725 h -4.04898 v -0.88264 h -6.32862 v 0.88264 h -4.04896 z" />
  </g>
</svg>
