<?xml version="1.0" encoding="UTF-8" standalone="no"?>
<!-- Created with Inkscape (http://www.inkscape.org/) -->

<svg
   width="122.72072mm"
   height="100.51066mm"
   viewBox="0 0 122.72072 100.51066"
   version="1.1"
   id="svg1122"
   inkscape:version="1.1.2 (0a00cf5339, 2022-02-04)"
   sodipodi:docname="kb_plate_open.svg"
   xmlns:inkscape="http://www.inkscape.org/namespaces/inkscape"
   xmlns:sodipodi="http://sodipodi.sourceforge.net/DTD/sodipodi-0.dtd"
   xmlns="http://www.w3.org/2000/svg"
   xmlns:svg="http://www.w3.org/2000/svg">
  <sodipodi:namedview
     id="namedview1124"
     pagecolor="#505050"
     bordercolor="#eeeeee"
     borderopacity="1"
     inkscape:pageshadow="0"
     inkscape:pageopacity="0"
     inkscape:pagecheckerboard="0"
     inkscape:document-units="mm"
     showgrid="false"
     fit-margin-top="0"
     fit-margin-left="0"
     fit-margin-right="0"
     fit-margin-bottom="0"
     inkscape:zoom="0.54431117"
     inkscape:cx="57.871309"
     inkscape:cy="230.56665"
     inkscape:window-width="1616"
     inkscape:window-height="872"
     inkscape:window-x="0"
     inkscape:window-y="0"
     inkscape:window-maximized="1"
     inkscape:current-layer="layer1" />
  <defs
     id="defs1119" />
  <g
     inkscape:label="Layer 1"
     inkscape:groupmode="layer"
     id="layer1"
     transform="translate(-39.632779,-87.119466)">
    <path
       id="circle45405"
       style="fill:#ffffff;fill-opacity:0;stroke:#000000;stroke-width:0.118308"
       d="m 85.12834,111.67939 a 0.98274606,0.98274606 0 0 1 -0.98275,0.98274 0.98274606,0.98274606 0 0 1 -0.98275,-0.98274 0.98274606,0.98274606 0 0 1 0.98275,-0.98275 0.98274606,0.98274606 0 0 1 0.98275,0.98275 z m 57.13763,25.72183 a 0.98274606,0.98274606 0 0 1 -0.98275,0.98275 0.98274606,0.98274606 0 0 1 -0.98274,-0.98275 0.98274606,0.98274606 0 0 1 0.98274,-0.98274 0.98274606,0.98274606 0 0 1 0.98275,0.98274 z m -0.0773,-25.68854 a 0.98274606,0.98274606 0 0 1 -0.98275,0.98275 0.98274606,0.98274606 0 0 1 -0.98274,-0.98275 0.98274606,0.98274606 0 0 1 0.98274,-0.98274 0.98274606,0.98274606 0 0 1 0.98275,0.98274 z M 85.0817,152.32725 a 0.98274606,0.98274606 0 0 1 -0.98274,0.98274 0.98274606,0.98274606 0 0 1 -0.98275,-0.98274 0.98274606,0.98274606 0 0 1 0.98275,-0.98275 0.98274606,0.98274606 0 0 1 0.98274,0.98275 z m -20.11355,15.1315 a 0.98274606,0.98274606 0 0 1 -0.98275,0.98274 0.98274606,0.98274606 0 0 1 -0.98274,-0.98274 0.98274606,0.98274606 0 0 1 0.98274,-0.98275 0.98274606,0.98274606 0 0 1 0.98275,0.98275 z m 36.1758,-78.516 v 0.11445 a 1.5100968,1.5100968 0 0 1 -1.5101,1.5101 H 83.61507 a 1.5199489,1.5199489 0 0 0 -1.51995,1.51994 v 0.59595 a 1.4661414,1.4661414 0 0 1 -1.46614,1.46614 H 65.0447 a 2.0003578,2.0003578 0 0 0 -2.00036,2.00035 v 52.00606 a 10.228735,10.228735 0 0 1 -3.07499,7.31102 l -0.57858,0.56614 a 21.657689,21.657689 0 0 1 -4.80874,3.55108 l -13.84455,7.52073 a 2.000211,2.000211 0 0 0 -0.80285,2.71238 l 9.04912,16.65875 a 2.0949423,2.0949423 0 0 0 2.78958,0.86784 l 9.45987,-4.80484 a 71.618562,71.618562 0 0 1 15.34801,-5.69688 v 0 a 86.367512,86.367512 0 0 1 20.60302,-2.49342 h 8.35838 a 1.999783,1.999783 0 0 0 1.99978,-1.99978 v -19.04847 a 2.0017461,2.0017461 0 0 0 -0.33815,-1.11329 l -1.87566,-2.80279 a 1.0929737,1.0929737 0 0 1 -0.18463,-0.60788 0.54242861,0.54242861 0 0 1 0.62178,-0.44927 h 12.90496 a 1.5240413,1.5240413 0 0 1 1.52404,1.52404 v 0.40332 a 1.4632616,1.4632616 0 0 0 1.46326,1.46326 h 15.36853 a 2.218992,2.218992 0 0 1 2.21899,2.21899 v 1.91664 a 2.4698412,2.4698412 0 0 0 2.46984,2.46984 h 18.57931 a 1.9996776,1.9996776 0 0 0 1.99968,-1.99968 v -57.3787 a 1.7720106,1.7720106 0 0 0 -1.77201,-1.77201 h -15.4704 a 1.8064172,1.8064172 0 0 1 -1.80642,-1.80641 v -3.42977 a 1.3692878,1.3692878 0 0 0 -1.36929,-1.36928 h -15.93646 a 1.7450311,1.7450311 0 0 1 -1.74503,-1.74504 v -0.37135 a 1.2722827,1.2722827 0 0 0 -1.27228,-1.27229 h -20.01437 a 1.764129,1.764129 0 0 0 -1.76413,1.76413 z m -56.67786,80.18398 12.67705,-6.88629 7.60734,14.00443 -12.67705,6.88629 z m 21.05377,-9.69185 13.92226,-3.78145 4.1774,15.38003 -13.92225,3.78145 z m 23.28442,-4.57953 h 14.42665 V 170.7926 H 88.80428 Z m 54.75211,-16.02551 h 14.42665 v 15.93724 h -14.42665 z m 0,-19.04999 h 14.42665 v 15.93725 h -14.42665 z m -19.05002,12.44477 h 14.42665 v 15.93724 h -14.42665 z m 0,-19.04999 h 14.42665 v 15.93724 h -14.42665 z m -19.04999,15.6597 h 14.42665 v 15.93724 h -14.42665 z m 0,-19.05002 h 14.42665 v 15.93724 h -14.42665 z m -19.05002,22.44031 h 14.42666 v 15.93724 H 86.40636 Z m 0,-19.04999 h 14.42666 v 15.93724 H 86.40636 Z m -19.04999,22.63074 h 14.42666 v 15.93724 H 67.35637 Z m 0,-19.04999 h 14.42666 v 15.93724 H 67.35637 Z m 76.20002,-16.02552 h 14.42665 v 15.93725 h -14.42665 z m -19.05002,-6.60525 h 14.42665 v 15.93724 h -14.42665 z m -19.04999,-3.39029 h 14.42665 v 15.93724 h -14.42665 z m -19.05002,3.39029 h 14.42666 v 15.93724 H 86.40636 Z m -19.04999,3.58076 h 14.42666 v 15.93725 H 67.35637 Z"
       inkscape:export-filename="/home/dan/git/split-keyboard-case-builder/src/kb_plate_open.svg"
       inkscape:export-xdpi="96"
       inkscape:export-ydpi="96" />
  </g>
</svg>
