<?xml version="1.0" encoding="UTF-8" standalone="no"?>
<!-- Created with Inkscape (http://www.inkscape.org/) -->

<svg
   width="127.55995mm"
   height="100.69244mm"
   viewBox="0 0 127.55995 100.69244"
   version="1.1"
   id="svg3582"
   inkscape:version="1.1.2 (0a00cf5339, 2022-02-04)"
   sodipodi:docname="kb_plate_open.svg"
   xmlns:inkscape="http://www.inkscape.org/namespaces/inkscape"
   xmlns:sodipodi="http://sodipodi.sourceforge.net/DTD/sodipodi-0.dtd"
   xmlns="http://www.w3.org/2000/svg"
   xmlns:svg="http://www.w3.org/2000/svg">
  <sodipodi:namedview
     id="namedview3584"
     pagecolor="#505050"
     bordercolor="#eeeeee"
     borderopacity="1"
     inkscape:pageshadow="0"
     inkscape:pageopacity="0"
     inkscape:pagecheckerboard="0"
     inkscape:document-units="mm"
     showgrid="false"
     fit-margin-top="0"
     fit-margin-left="0"
     fit-margin-right="0"
     fit-margin-bottom="0"
     inkscape:zoom="0.54431117"
     inkscape:cx="-19.290436"
     inkscape:cy="157.07927"
     inkscape:window-width="1616"
     inkscape:window-height="872"
     inkscape:window-x="0"
     inkscape:window-y="0"
     inkscape:window-maximized="1"
     inkscape:current-layer="layer1" />
  <defs
     id="defs3579" />
  <g
     inkscape:label="Layer 1"
     inkscape:groupmode="layer"
     id="layer1"
     transform="translate(-60.117289,-106.91434)">
    <path
       id="path3492"
       style="fill:none;stroke:#000000;stroke-width:0.264583px;stroke-linecap:butt;stroke-linejoin:miter;stroke-opacity:1"
       d="m 126.39412,109.05194 c 0,0.76639 -0.62128,1.38768 -1.38768,1.38768 h -15.66021 c -1.10509,0 -2.00094,0.89585 -2.00094,2.00094 0,0.87321 -0.70788,1.58109 -1.58109,1.58109 H 91.27089 c -0.68725,0 -1.37436,0.0191 -2.06055,0.0572 v 0 c -0.83696,0.0465 -1.67504,0.0698 -2.51329,0.0698 H 62.25018 c -1.1049,0 -2.0006,0.8957 -2.0006,2.0006 v 13.13694 c 0,8.46552 0.0729,16.94288 0.72506,25.38176 0.53962,6.9825 0.91675,12.28496 2.63397,20.8442 1.71722,8.55924 2.83837,16.49786 8.01486,26.02919 l 2.65454,4.88773 c 0.51694,0.95184 1.69765,1.31921 2.66337,0.8287 l 8.95671,-4.54928 c 5.27033,-2.6769 10.83024,-4.74062 16.57078,-6.15074 6.31904,-1.55222 12.8022,-2.33683 19.30909,-2.33683 h 9.01503 c 1.10433,0 1.99956,-0.89523 1.99956,-1.99956 v -16.36662 c 0,-1.99723 -0.3316,-3.98059 -0.98128,-5.8692 l -0.009,-0.0274 c -0.29637,-0.86155 0.34372,-1.75866 1.25482,-1.75866 h 10.99709 c 0.76832,0 1.39116,0.62284 1.39116,1.39116 v 0.48805 c 0,0.83473 0.67668,1.51141 1.51141,1.51141 h 15.44042 c 1.15922,0 2.09895,0.93973 2.09895,2.09895 v 2.50684 c 0,1.10439 0.89529,1.99968 1.99968,1.99968 h 19.04947 c 1.10439,0 1.99968,-0.89529 1.99968,-1.99968 v -57.15003 c 0,-1.10497 -0.89575,-2.00072 -2.00072,-2.00072 h -15.09527 c -1.07852,0 -1.95284,-0.87432 -1.95284,-1.95284 v -2.65169 c 0,-1.10509 -0.89585,-2.00094 -2.00094,-2.00094 h -15.40675 c -0.90745,0 -1.64309,-0.73563 -1.64309,-1.64309 -0.0702,-1.03425 -0.96553,-1.81578 -1.99979,-1.74558 h -19.05 c -1.10512,0 -2.00099,0.89587 -2.00099,2.00099 z m -36.07625,78.36335 a 1.0771629,1.0771629 0 0 1 -1.07717,1.07717 1.0771629,1.0771629 0 0 1 -1.07716,-1.07717 1.0771629,1.0771629 0 0 1 1.07716,-1.07716 1.0771629,1.0771629 0 0 1 1.07717,1.07716 z m 20.1044,-33.29397 a 1.0771629,1.0771629 0 0 1 -1.07717,1.07716 1.0771629,1.0771629 0 0 1 -1.07716,-1.07716 1.0771629,1.0771629 0 0 1 1.07716,-1.07716 1.0771629,1.0771629 0 0 1 1.07717,1.07716 z m 57.14999,3.02447 a 1.0771629,1.0771629 0 0 1 -1.07716,1.07717 1.0771629,1.0771629 0 0 1 -1.07716,-1.07717 1.0771629,1.0771629 0 0 1 1.07716,-1.07716 1.0771629,1.0771629 0 0 1 1.07716,1.07716 z m 0,-25.65524 a 1.0771629,1.0771629 0 0 1 -1.07716,1.07716 1.0771629,1.0771629 0 0 1 -1.07716,-1.07716 1.0771629,1.0771629 0 0 1 1.07716,-1.07716 1.0771629,1.0771629 0 0 1 1.07716,1.07716 z m -97.85577,57.50853 12.67705,-6.8863 7.60734,14.00444 -12.67705,6.88629 z m 21.05376,-9.6919 13.92226,-3.78145 4.1774,15.38003 -13.92226,3.78145 z m 23.28445,-4.57948 h 14.42665 v 15.93725 H 114.0547 Z m 54.75207,-16.02551 h 14.42666 v 15.93724 h -14.42666 z m 0,-19.05002 h 14.42666 v 15.93725 h -14.42666 z m -19.04998,12.44476 h 14.42665 v 15.93725 h -14.42665 z m 0,-19.04998 h 14.42665 v 15.93724 h -14.42665 z m -19.05002,15.6597 h 14.42665 v 15.93724 h -14.42665 z m 0,-19.05002 h 14.42665 v 15.93724 h -14.42665 z m -19.04999,22.4403 h 14.42665 v 15.93725 h -14.42665 z m 0,-19.04998 h 14.42665 v 15.93724 h -14.42665 z m -19.04999,22.63073 h 14.42666 v 15.93725 H 92.60679 Z m 0,-19.04998 h 14.42666 v 15.93724 H 92.60679 Z m 76.19998,-16.02552 h 14.42666 v 15.93725 h -14.42666 z m -19.04998,-6.60524 h 14.42665 v 15.93725 h -14.42665 z m -19.05002,-3.3903 h 14.42665 v 15.93724 h -14.42665 z m -19.04999,3.3903 h 14.42665 v 15.93725 h -14.42665 z m -19.04999,3.58077 h 14.42666 v 15.93724 H 92.60679 Z m 17.81548,13.91284 a 1.0771629,1.0771629 0 0 1 -1.07717,1.07716 1.0771629,1.0771629 0 0 1 -1.07716,-1.07716 1.0771629,1.0771629 0 0 1 1.07716,-1.07716 1.0771629,1.0771629 0 0 1 1.07717,1.07716 z m -48.42,-15.5889 h 26.2393 v 26.23931 h -26.2393 z" />
  </g>
</svg>
