<?xml version="1.0" encoding="UTF-8" standalone="no"?>
<!-- Created with Inkscape (http://www.inkscape.org/) -->

<svg
   width="122.72074mm"
   height="100.51066mm"
   viewBox="0 0 122.72074 100.51066"
   version="1.1"
   id="svg1122"
   inkscape:version="1.1.2 (0a00cf5339, 2022-02-04)"
   sodipodi:docname="kb_plate_locking.svg"
   xmlns:inkscape="http://www.inkscape.org/namespaces/inkscape"
   xmlns:sodipodi="http://sodipodi.sourceforge.net/DTD/sodipodi-0.dtd"
   xmlns="http://www.w3.org/2000/svg"
   xmlns:svg="http://www.w3.org/2000/svg">
  <sodipodi:namedview
     id="namedview1124"
     pagecolor="#505050"
     bordercolor="#eeeeee"
     borderopacity="1"
     inkscape:pageshadow="0"
     inkscape:pageopacity="0"
     inkscape:pagecheckerboard="0"
     inkscape:document-units="mm"
     showgrid="false"
     fit-margin-top="0"
     fit-margin-left="0"
     fit-margin-right="0"
     fit-margin-bottom="0"
     inkscape:zoom="0.54431117"
     inkscape:cx="243.42694"
     inkscape:cy="217.70635"
     inkscape:window-width="1616"
     inkscape:window-height="872"
     inkscape:window-x="0"
     inkscape:window-y="0"
     inkscape:window-maximized="1"
     inkscape:current-layer="layer1" />
  <defs
     id="defs1119" />
  <g
     inkscape:label="Layer 1"
     inkscape:groupmode="layer"
     id="layer1"
     transform="translate(9.3489206,-90.710306)">
    <path
       id="circle45283"
       style="fill:#ffffff;fill-opacity:0;stroke:#000000;stroke-width:0.118308"
       d="m 36.14665,115.27021 a 0.98274606,0.98274606 0 0 1 -0.98275,0.98275 0.98274606,0.98274606 0 0 1 -0.98275,-0.98275 0.98274606,0.98274606 0 0 1 0.98275,-0.98275 0.98274606,0.98274606 0 0 1 0.98275,0.98275 z m 57.13763,25.72183 a 0.98274606,0.98274606 0 0 1 -0.98275,0.98275 0.98274606,0.98274606 0 0 1 -0.98274,-0.98275 0.98274606,0.98274606 0 0 1 0.98274,-0.98274 0.98274606,0.98274606 0 0 1 0.98275,0.98274 z m -0.0773,-25.68854 a 0.98274606,0.98274606 0 0 1 -0.98275,0.98275 0.98274606,0.98274606 0 0 1 -0.98274,-0.98275 0.98274606,0.98274606 0 0 1 0.98274,-0.98274 0.98274606,0.98274606 0 0 1 0.98275,0.98274 z m -57.10696,40.61457 a 0.98274606,0.98274606 0 0 1 -0.98275,0.98274 0.98274606,0.98274606 0 0 1 -0.98275,-0.98274 0.98274606,0.98274606 0 0 1 0.98275,-0.98275 0.98274606,0.98274606 0 0 1 0.98275,0.98275 z M 15.98644,171.0496 a 0.98274606,0.98274606 0 0 1 -0.98274,0.98274 0.98274606,0.98274606 0 0 1 -0.98275,-0.98274 0.98274606,0.98274606 0 0 1 0.98275,-0.98275 0.98274606,0.98274606 0 0 1 0.98274,0.98275 z M 52.16225,92.53359 v 0.11444 a 1.5100968,1.5100968 0 0 1 -1.5101,1.5101 H 34.63337 a 1.5199489,1.5199489 0 0 0 -1.51995,1.51995 v 0.59594 a 1.4661414,1.4661414 0 0 1 -1.46614,1.46614 H 16.063 a 2.0003578,2.0003578 0 0 0 -2.00036,2.00036 v 52.00606 a 10.228735,10.228735 0 0 1 -3.07499,7.31102 l -0.57858,0.56614 a 21.657689,21.657689 0 0 1 -4.80874,3.55108 l -13.84455,7.52073 a 2.000211,2.000211 0 0 0 -0.80285,2.71238 l 9.04912,16.65875 a 2.0949423,2.0949423 0 0 0 2.78958,0.86784 l 9.45987,-4.80484 a 71.618562,71.618562 0 0 1 15.34801,-5.69688 v 0 a 86.367512,86.367512 0 0 1 20.60302,-2.49342 h 8.35838 a 1.999783,1.999783 0 0 0 1.99981,-1.99978 v -19.04847 a 2.0017461,2.0017461 0 0 0 -0.33815,-1.11329 l -1.87566,-2.80279 a 1.0929737,1.0929737 0 0 1 -0.18463,-0.60788 0.54242861,0.54242861 0 0 1 0.62178,-0.44927 h 12.90496 a 1.5240413,1.5240413 0 0 1 1.52404,1.52404 v 0.40332 a 1.4632616,1.4632616 0 0 0 1.46326,1.46326 h 15.36853 a 2.218992,2.218992 0 0 1 2.21899,2.21899 v 1.91664 a 2.4698412,2.4698412 0 0 0 2.46984,2.46984 h 18.57931 a 1.9996776,1.9996776 0 0 0 1.99968,-1.99968 v -57.3787 a 1.7720106,1.7720106 0 0 0 -1.77201,-1.77201 H 96.07026 A 1.8064172,1.8064172 0 0 1 94.26384,98.95718 V 95.52742 A 1.3692878,1.3692878 0 0 0 92.89455,94.15813 H 76.95809 A 1.7450311,1.7450311 0 0 1 75.21306,92.4131 V 92.04174 A 1.2722827,1.2722827 0 0 0 73.94078,90.76946 H 53.92641 a 1.764129,1.764129 0 0 0 -1.76413,1.76413 z m -56.67785,80.18398 3.55793,-1.9327 0.42132,0.77561 5.5611,-3.02085 -0.42059,-0.776 3.55728,-1.93235 7.60735,14.00444 -3.55794,1.9327 -0.42131,-0.7756 -5.56111,3.02085 0.42131,0.7756 -3.55792,1.9327 z m 21.05378,-9.69187 3.9074,-1.0613 0.23136,0.85179 6.10735,-1.65883 -0.23056,-0.85201 3.90669,-1.0611 4.1774,15.38002 -3.90741,1.0613 -0.23136,-0.85178 -6.10734,1.65883 0.23135,0.85178 -3.9074,1.0613 z m 23.2844,-4.57951 h 4.04897 v 0.88266 h 6.32862 l 8.3e-4,-0.88266 h 4.04823 v 15.93725 h -4.04898 v -0.88264 h -6.32862 v 0.88264 h -4.04897 z m 54.75209,-16.02551 h 4.04897 v 0.88266 h 6.32862 l 8.3e-4,-0.88266 h 4.04823 v 15.93725 h -4.04898 v -0.88264 h -6.32862 v 0.88264 h -4.04897 z m 0,-19.05 h 4.04897 v 0.88266 h 6.32862 l 8.3e-4,-0.88266 h 4.04823 v 15.93725 h -4.04898 v -0.88264 h -6.32862 v 0.88264 h -4.04897 z m -19.05,12.44475 h 4.04897 v 0.88266 h 6.32862 l 8.3e-4,-0.88266 h 4.04823 v 15.93725 h -4.04898 v -0.88264 h -6.32862 v 0.88264 h -4.04897 z m 0,-19.04999 h 4.04897 v 0.88266 h 6.32862 l 8.3e-4,-0.88266 h 4.04823 v 15.93725 h -4.04898 v -0.88264 h -6.32862 v 0.88264 h -4.04897 z m -19.05,15.6597 h 4.04897 v 0.88266 h 6.32862 l 8.3e-4,-0.88266 h 4.04823 v 15.93725 h -4.04898 v -0.88264 h -6.32862 v 0.88264 h -4.04896 z m 0,-19.05 h 4.04897 v 0.88266 h 6.32862 l 8.3e-4,-0.88266 h 4.04823 v 15.93725 h -4.04898 v -0.88264 h -6.32862 v 0.88264 h -4.04896 z m -19.05,22.44029 h 4.04897 v 0.88266 h 6.32862 l 8.3e-4,-0.88266 h 4.04823 v 15.93725 h -4.04898 v -0.88264 h -6.32862 v 0.88264 h -4.04897 z m 0,-19.04999 h 4.04897 v 0.88266 h 6.32862 l 8.3e-4,-0.88266 h 4.04823 v 15.93725 h -4.04898 v -0.88264 h -6.32862 v 0.88264 h -4.04897 z m -19.05,22.63075 h 4.04897 v 0.88266 h 6.32862 l 8.3e-4,-0.88266 h 4.04823 v 15.93725 h -4.04898 v -0.88264 h -6.32862 v 0.88264 h -4.04897 z m 0,-19.05 h 4.04897 v 0.88266 h 6.32862 l 8.3e-4,-0.88266 h 4.04823 v 15.93725 h -4.04898 v -0.88264 h -6.32862 v 0.88264 h -4.04897 z m 76.2,-16.0255 h 4.04897 v 0.88266 h 6.32862 l 8.3e-4,-0.88266 h 4.04823 v 15.93725 h -4.04898 v -0.88264 h -6.32862 v 0.88264 h -4.04897 z m -19.05,-6.60525 h 4.04897 v 0.88266 h 6.32862 l 8.3e-4,-0.88266 h 4.04823 v 15.93725 h -4.04898 v -0.88264 h -6.32862 v 0.88264 h -4.04897 z m -19.05,-3.3903 h 4.04897 v 0.88266 h 6.32862 l 8.3e-4,-0.88266 h 4.04823 v 15.93725 h -4.04898 v -0.88264 h -6.32862 v 0.88264 h -4.04896 z m -19.05,3.3903 h 4.04897 v 0.88266 h 6.32862 l 8.3e-4,-0.88266 h 4.04823 v 15.93725 h -4.04898 v -0.88264 h -6.32862 v 0.88264 h -4.04897 z m -19.05,3.58076 h 4.04897 v 0.88266 h 6.32862 l 8.3e-4,-0.88266 h 4.04823 v 15.93725 h -4.04898 v -0.88264 h -6.32862 v 0.88264 h -4.04897 z"
       inkscape:export-filename="/home/dan/git/split-keyboard-case-builder/src/kb_plate_locking.svg"
       inkscape:export-xdpi="96"
       inkscape:export-ydpi="96" />
  </g>
</svg>
