<?xml version="1.0" encoding="UTF-8" standalone="no"?>
<!-- Created with Inkscape (http://www.inkscape.org/) -->

<svg
   width="127.43374mm"
   height="100.56647mm"
   viewBox="0 0 127.43374 100.56648"
   version="1.1"
   id="svg5"
   inkscape:version="1.2.2 (b0a8486541, 2022-12-01)"
   sodipodi:docname="template.svg"
   inkscape:export-filename="kb_plate_uncut.svg"
   inkscape:export-xdpi="96"
   inkscape:export-ydpi="96"
   xmlns:inkscape="http://www.inkscape.org/namespaces/inkscape"
   xmlns:sodipodi="http://sodipodi.sourceforge.net/DTD/sodipodi-0.dtd"
   xmlns="http://www.w3.org/2000/svg"
   xmlns:svg="http://www.w3.org/2000/svg">
  <sodipodi:namedview
     id="namedview7"
     pagecolor="#ffffff"
     bordercolor="#666666"
     borderopacity="1.0"
     inkscape:showpageshadow="false"
     inkscape:pageopacity="0"
     inkscape:pagecheckerboard="0"
     inkscape:deskcolor="#ffffff"
     inkscape:document-units="mm"
     showgrid="false"
     inkscape:zoom="0.51602726"
     inkscape:cx="3235.2942"
     inkscape:cy="541.63805"
     inkscape:window-width="1920"
     inkscape:window-height="1055"
     inkscape:window-x="1920"
     inkscape:window-y="1080"
     inkscape:window-maximized="0"
     inkscape:current-layer="layer1"
     showborder="false"
     borderlayer="false"
     inkscape:pageshadow="0" />
  <defs
     id="defs2" />
  <g
     inkscape:label="Layer 1"
     inkscape:groupmode="layer"
     id="layer1"
     transform="translate(-221.73356,-248.2586)">
    <path
       id="path11294"
       style="stroke:#000000;stroke-width:0.138354"
       d="m 225.87424,263.38248 h 21.60164 v 10.72164 h -21.60164 z m 62.07303,-13.04939 c 0,0.7664 -0.62128,1.38768 -1.38768,1.38769 h -15.66021 c -1.10509,-1e-5 -2.00094,0.89585 -2.00094,2.00093 0,0.87322 -0.70788,1.5811 -1.58109,1.5811 h -14.49331 c -0.68725,0 -1.37436,0.0191 -2.06055,0.0572 v 0 c -0.83696,0.0465 -1.67504,0.0698 -2.51329,0.0698 h -24.44687 c -1.1049,0 -2.0006,0.8957 -2.0006,2.0006 v 13.13693 c 0,8.46552 0.0729,16.94288 0.72506,25.38176 0.53962,6.9825 0.91675,12.28496 2.63397,20.8442 1.71722,8.55924 2.83837,16.49786 8.01486,26.02919 l 2.65454,4.88773 c 0.51694,0.95184 1.69765,1.31921 2.66337,0.8287 l 8.95671,-4.54928 c 5.27033,-2.6769 10.83024,-4.74062 16.57078,-6.15074 6.31904,-1.55222 12.8022,-2.33683 19.30909,-2.33683 h 9.01503 c 1.10433,0 1.99956,-0.89523 1.99956,-1.99956 v -16.36662 c 0,-1.99723 -0.3316,-3.98059 -0.98128,-5.8692 l -0.009,-0.0274 c -0.29637,-0.86155 0.34372,-1.75866 1.25482,-1.75866 h 10.99709 c 0.76832,0 1.39116,0.62284 1.39116,1.39116 v 0.48805 c 0,0.83473 0.67668,1.51141 1.51141,1.51141 h 15.44042 c 1.15922,0 2.09895,0.93973 2.09895,2.09895 v 2.50684 c 0,1.10439 0.89529,1.99968 1.99968,1.99968 h 19.04947 c 1.10439,0 1.99968,-0.89529 1.99968,-1.99968 v -57.15003 c 0,-1.10496 -0.89575,-2.00072 -2.00072,-2.00072 h -15.09527 c -1.07852,0 -1.95284,-0.87431 -1.95284,-1.95284 v -2.65169 c 0,-1.10508 -0.89585,-2.00094 -2.00094,-2.00093 h -15.40675 c -0.90745,0 -1.64309,-0.73564 -1.64309,-1.64309 -0.0702,-1.03426 -0.96553,-1.81578 -1.99979,-1.74559 h -19.05 c -1.10512,0 -2.00099,0.89588 -2.00099,2.00099 z m -15.28141,45.06938 a 1.7676035,1.7676035 0 0 1 -1.76761,1.7676 1.7676035,1.7676035 0 0 1 -1.7676,-1.7676 1.7676035,1.7676035 0 0 1 1.7676,-1.76761 1.7676035,1.7676035 0 0 1 1.76761,1.76761 z m 57.14999,-22.63074 a 1.7676035,1.7676035 0 0 1 -1.7676,1.7676 1.7676035,1.7676035 0 0 1 -1.76761,-1.7676 1.7676035,1.7676035 0 0 1 1.76761,-1.76761 1.7676035,1.7676035 0 0 1 1.7676,1.76761 z m 0,25.65521 a 1.7676035,1.7676035 0 0 1 -1.7676,1.7676 1.7676035,1.7676035 0 0 1 -1.76761,-1.7676 1.7676035,1.7676035 0 0 1 1.76761,-1.7676 1.7676035,1.7676035 0 0 1 1.7676,1.7676 z m -77.25439,30.2695 a 1.7676035,1.7676035 0 0 1 -1.76761,1.76761 1.7676035,1.7676035 0 0 1 -1.7676,-1.76761 1.7676035,1.7676035 0 0 1 1.7676,-1.7676 1.7676035,1.7676035 0 0 1 1.76761,1.7676 z m 20.1044,-55.92471 a 1.7676035,1.7676035 0 0 1 -1.76761,1.7676 1.7676035,1.7676035 0 0 1 -1.7676,-1.7676 1.7676035,1.7676035 0 0 1 1.7676,-1.76761 1.7676035,1.7676035 0 0 1 1.76761,1.76761 z m -41.3962,57.50848 3.55793,-1.93269 0.42131,0.7756 5.56111,-3.02084 -0.42059,-0.77601 3.55728,-1.93234 7.60734,14.00443 -3.55793,1.93271 -0.42131,-0.7756 -5.56111,3.02084 0.42131,0.7756 -3.55792,1.9327 z m 21.05377,-9.69187 3.90741,-1.0613 0.23135,0.85179 6.10735,-1.65883 -0.23056,-0.85201 3.9067,-1.0611 4.1774,15.38003 -3.90741,1.0613 -0.23136,-0.85179 -6.10735,1.65883 0.23136,0.85178 -3.90741,1.0613 z m 23.28441,-4.57951 h 4.04897 v 0.88266 h 6.32862 l 8.3e-4,-0.88266 h 4.04823 v 15.93725 h -4.04898 v -0.88264 h -6.32862 v 0.88264 h -4.04896 z m 54.75209,-16.02551 h 4.04897 v 0.88266 h 6.32862 l 8.3e-4,-0.88266 h 4.04823 v 15.93725 h -4.04898 v -0.88264 h -6.32862 v 0.88264 h -4.04897 z m 0,-19.05 h 4.04897 v 0.88266 h 6.32862 l 8.3e-4,-0.88266 h 4.04823 v 15.93725 h -4.04898 v -0.88264 h -6.32862 v 0.88264 h -4.04897 z m -19.05,12.44475 h 4.04897 v 0.88266 h 6.32862 l 8.3e-4,-0.88266 h 4.04823 v 15.93725 h -4.04898 v -0.88264 h -6.32862 v 0.88264 h -4.04896 z m 0,-19.04999 h 4.04897 v 0.88266 h 6.32862 l 8.3e-4,-0.88266 h 4.04823 v 15.93725 h -4.04898 v -0.88264 h -6.32862 v 0.88264 h -4.04896 z m -19.05,15.6597 h 4.04897 v 0.88266 h 6.32862 l 8.3e-4,-0.88266 h 4.04823 v 15.93725 h -4.04898 v -0.88264 h -6.32862 v 0.88264 h -4.04897 z m 0,-19.05 h 4.04897 v 0.88266 h 6.32862 l 8.3e-4,-0.88266 h 4.04823 v 15.93725 h -4.04898 v -0.88264 h -6.32862 v 0.88264 h -4.04897 z m -19.05,22.44029 h 4.04897 v 0.88266 h 6.32862 l 8.3e-4,-0.88266 h 4.04823 v 15.93725 h -4.04898 v -0.88264 h -6.32862 v 0.88264 h -4.04897 z m 0,-19.04999 h 4.04897 v 0.88266 h 6.32862 l 8.3e-4,-0.88266 h 4.04823 v 15.93725 h -4.04898 v -0.88264 h -6.32862 v 0.88264 h -4.04897 z m -19.05,22.63075 h 4.04897 v 0.88266 h 6.32862 l 8.3e-4,-0.88266 h 4.04823 v 15.93725 h -4.04898 v -0.88264 h -6.32862 v 0.88264 h -4.04896 z m 0,-19.05 h 4.04897 v 0.88266 h 6.32862 l 8.3e-4,-0.88266 h 4.04823 v 15.93725 h -4.04898 v -0.88264 h -6.32862 v 0.88264 h -4.04896 z m 76.2,-16.02549 h 4.04897 v 0.88265 h 6.32862 l 8.3e-4,-0.88265 h 4.04823 v 15.93724 h -4.04898 v -0.88264 h -6.32862 v 0.88264 h -4.04897 z m -19.05,-6.60525 h 4.04897 v 0.88265 h 6.32862 l 8.3e-4,-0.88265 h 4.04823 v 15.93724 h -4.04898 v -0.88264 h -6.32862 v 0.88264 h -4.04896 z m -19.05,-3.3903 h 4.04897 v 0.88265 h 6.32862 l 8.3e-4,-0.88265 h 4.04823 v 15.93725 h -4.04898 v -0.88265 h -6.32862 v 0.88265 h -4.04897 z m -19.05,3.3903 h 4.04897 v 0.88265 h 6.32862 l 8.3e-4,-0.88265 h 4.04823 v 15.93724 h -4.04898 v -0.88264 h -6.32862 v 0.88264 h -4.04897 z m -19.05,3.58076 h 4.04897 v 0.88265 h 6.32862 l 8.3e-4,-0.88265 h 4.04823 v 15.93724 h -4.04898 v -0.88264 h -6.32862 v 0.88264 h -4.04896 z"
       inkscape:export-filename="src/kb_plate_locking.png"
       inkscape:export-xdpi="96"
       inkscape:export-ydpi="96" />
  </g>
</svg>
