<?xml version="1.0" encoding="UTF-8" standalone="no"?>
<!-- Created with Inkscape (http://www.inkscape.org/) -->

<svg
   width="118.98889mm"
   height="98.016785mm"
   viewBox="0 0 118.98889 98.016798"
   version="1.1"
   id="svg5"
   inkscape:version="1.2.2 (b0a8486541, 2022-12-01)"
   sodipodi:docname="kb_plate_main.svg"
   inkscape:export-filename="kb_plate_uncut.svg"
   inkscape:export-xdpi="96"
   inkscape:export-ydpi="96"
   xmlns:inkscape="http://www.inkscape.org/namespaces/inkscape"
   xmlns:sodipodi="http://sodipodi.sourceforge.net/DTD/sodipodi-0.dtd"
   xmlns="http://www.w3.org/2000/svg"
   xmlns:svg="http://www.w3.org/2000/svg">
  <sodipodi:namedview
     id="namedview7"
     pagecolor="#ffffff"
     bordercolor="#666666"
     borderopacity="1.0"
     inkscape:showpageshadow="2"
     inkscape:pageopacity="0.0"
     inkscape:pagecheckerboard="0"
     inkscape:deskcolor="#d1d1d1"
     inkscape:document-units="mm"
     showgrid="false"
     inkscape:zoom="0.70710678"
     inkscape:cx="964.49365"
     inkscape:cy="816.70833"
     inkscape:window-width="1920"
     inkscape:window-height="1055"
     inkscape:window-x="1920"
     inkscape:window-y="1080"
     inkscape:window-maximized="0"
     inkscape:current-layer="layer1"
     showborder="true" />
  <defs
     id="defs2" />
  <g
     inkscape:label="Layer 1"
     inkscape:groupmode="layer"
     id="layer1"
     transform="translate(-33.754308,-229.09399)">
    <path
       id="ellipse1492"
       style="fill:#ffffff;fill-opacity:0;stroke:#000000;stroke-width:0.11355"
       d="m 134.55835,277.77985 a 0.94322491,0.94322509 0 0 1 -0.94322,0.94322 0.94322491,0.94322509 0 0 1 -0.94323,-0.94322 0.94322491,0.94322509 0 0 1 0.94323,-0.94323 0.94322491,0.94322509 0 0 1 0.94322,0.94323 z m -0.0928,-25.32544 a 0.94322491,0.94322509 0 0 1 -0.94323,0.94322 0.94322491,0.94322509 0 0 1 -0.94322,-0.94322 0.94322491,0.94322509 0 0 1 0.94322,-0.94323 0.94322491,0.94322509 0 0 1 0.94323,0.94323 z m -57.19246,3.64084 a 0.94322491,0.94322509 0 0 1 -0.943225,0.94322 0.94322491,0.94322509 0 0 1 -0.943225,-0.94322 0.94322491,0.94322509 0 0 1 0.943225,-0.94323 0.94322491,0.94322509 0 0 1 0.943225,0.94323 z m 0.602196,38.43188 a 0.94322491,0.94322509 0 0 1 -0.943225,0.94323 0.94322491,0.94322509 0 0 1 -0.943225,-0.94323 0.94322491,0.94322509 0 0 1 0.943225,-0.94322 0.94322491,0.94322509 0 0 1 0.943225,0.94322 z M 57.412177,308.4364 a 0.94322491,0.94322509 0 0 1 -0.943225,0.94323 0.94322491,0.94322509 0 0 1 -0.943225,-0.94323 0.94322491,0.94322509 0 0 1 0.943225,-0.94322 0.94322491,0.94322509 0 0 1 0.943225,0.94322 z m -23.581215,0.97486 23.457612,-12.93311 0.210194,-60.48613 h 18.369937 v -3.18964 h 19.133523 v -3.65161 h 19.327212 v 3.68627 h 19.16801 v 6.92555 h 19.18898 v 59.01307 h -19.14027 v -6.55112 h -18.62438 v -3.85343 H 98.152488 v 25.35954 H 79.222635 l -18.602029,4.1206 -17.293679,9.18292 z m 24.437168,-8.92373 3.735375,-1.00466 0.219009,0.81429 5.838467,-1.57029 -0.218247,-0.8145 3.734699,-1.00447 3.95444,14.7029 -3.735384,1.00466 -0.219007,-0.81429 -5.838466,1.5703 0.219007,0.81428 -3.735375,1.00465 z m 23.188637,-4.46124 h 3.86812 v 0.84323 h 6.04595 l 7.9e-4,-0.84323 h 3.86742 v 15.2254 h -3.86813 v -0.84322 h -6.04595 v 0.84322 h -3.86812 z m -44.200717,14.05558 3.402596,-1.83975 0.401057,0.74175 5.318326,-2.87557 -0.400361,-0.74213 3.40198,-1.83942 7.241497,13.39304 -3.402604,1.83976 -0.401052,-0.74174 -5.318327,2.87557 0.401052,0.74174 -3.402596,1.83975 z m 98.95281,-68.18109 h 3.86812 v 0.84323 h 6.04595 l 7.9e-4,-0.84323 h 3.86742 v 15.2254 h -3.86813 v -0.84322 h -6.04595 v 0.84322 h -3.86812 z m -19.05,-6.60525 h 3.86812 v 0.84323 h 6.04595 l 7.9e-4,-0.84323 h 3.86742 v 15.2254 h -3.86813 v -0.84322 h -6.04595 v 0.84322 h -3.86812 z m -19.05,-3.3903 h 3.86812 v 0.84323 h 6.04595 l 7.9e-4,-0.84323 h 3.86742 v 15.2254 h -3.86813 v -0.84322 h -6.04595 v 0.84322 h -3.86812 z m -19.049999,3.3903 h 3.86812 v 0.84323 h 6.04595 l 7.9e-4,-0.84323 h 3.86742 v 15.2254 h -3.86813 v -0.84322 h -6.04595 v 0.84322 h -3.86812 z m -19.049999,3.58076 h 3.86812 v 0.84323 h 6.04595 l 7.9e-4,-0.84323 h 3.86742 v 15.2254 h -3.86813 v -0.84322 h -6.04595 v 0.84322 h -3.86812 z m 76.199998,22.07449 h 3.86812 v 0.84323 h 6.04595 l 7.9e-4,-0.84323 h 3.86742 v 15.2254 h -3.86813 v -0.84322 h -6.04595 v 0.84322 h -3.86812 z m -19.05,-6.60525 h 3.86812 v 0.84323 h 6.04595 l 7.9e-4,-0.84323 h 3.86742 v 15.2254 h -3.86813 v -0.84322 h -6.04595 v 0.84322 h -3.86812 z m -19.05,-3.3903 h 3.86812 v 0.84323 h 6.04595 l 7.9e-4,-0.84323 h 3.86742 v 15.22541 h -3.86813 v -0.84322 h -6.04595 v 0.84322 h -3.86812 z m -19.049999,3.3903 h 3.86812 v 0.84323 h 6.04595 l 7.9e-4,-0.84323 h 3.86742 v 15.2254 h -3.86813 v -0.84322 h -6.04595 v 0.84322 h -3.86812 z m -19.049999,3.58076 h 3.86812 v 0.84323 h 6.04595 l 7.9e-4,-0.84323 h 3.86742 v 15.2254 h -3.86813 v -0.84322 h -6.04595 v 0.84322 h -3.86812 z m 76.199998,22.07449 h 3.86812 v 0.84323 h 6.04595 l 7.9e-4,-0.84323 h 3.86742 v 15.2254 h -3.86813 v -0.84322 h -6.04595 v 0.84322 h -3.86812 z m -19.05,-6.60525 h 3.86812 v 0.84323 h 6.04595 l 7.9e-4,-0.84323 h 3.86742 v 15.2254 h -3.86813 v -0.84322 h -6.04595 v 0.84322 h -3.86812 z m -19.05,-3.39029 h 3.86812 v 0.84323 h 6.04595 l 7.9e-4,-0.84323 h 3.86742 v 15.2254 h -3.86813 v -0.84322 h -6.04595 v 0.84322 h -3.86812 z m -19.049999,3.39029 h 3.86812 v 0.84323 h 6.04595 l 7.9e-4,-0.84323 h 3.86742 v 15.2254 h -3.86813 v -0.84322 h -6.04595 v 0.84322 h -3.86812 z m -19.049999,3.58076 h 3.86812 v 0.84323 h 6.04595 l 7.9e-4,-0.84323 h 3.86742 v 15.2254 h -3.86813 v -0.84322 h -6.04595 v 0.84322 h -3.86812 z" />
  </g>
</svg>
